<svg width="29" height="60" viewBox="0 0 29 60" fill="none" xmlns="http://www.w3.org/2000/svg">
<path d="M13.4056 54.0181C13.4056 52.3114 13.4056 50.6193 13.4056 48.9126C13.4056 48.2708 13.3034 48.1687 12.6762 48.2854C10.7945 48.6209 9.04402 48.227 7.32274 47.4685C5.84944 46.8121 4.63871 45.8639 3.63221 44.6094C3.15083 44.0114 2.65487 43.3695 2.36313 42.6694C1.91093 41.5753 1.47332 40.4375 1.4879 39.2122C1.4879 38.8184 1.61919 38.5996 2.01304 38.4245C4.06982 37.5201 6.17036 37.4472 8.2709 38.089C9.86089 38.5704 11.3634 39.2997 12.5157 40.5688C12.647 40.7147 12.7783 40.8606 12.9242 40.9773C13.1284 41.1523 13.318 41.0794 13.3618 40.8168C13.3764 40.7293 13.3764 40.6418 13.3764 40.5688C13.3764 39.2268 13.3764 37.8702 13.3764 36.5282C13.3764 35.9739 13.2305 35.8572 12.6762 35.8572C12.0198 35.8718 11.3634 35.9155 10.7069 35.8134C9.99218 35.7113 9.58374 35.2737 9.58374 34.5298C9.56915 33.2899 9.58374 32.05 9.58374 30.8101C9.58374 30.1682 9.55456 29.5264 9.52539 28.8846C9.5108 28.4907 9.35034 28.2427 9.01484 28.0823C8.18338 27.6738 7.38109 27.2216 6.59338 26.7548C6.27247 26.5652 6.18495 26.3464 6.28706 25.9963C6.40375 25.6462 6.60797 25.3399 6.82678 25.0482C7.04558 24.771 7.32274 24.7127 7.62907 24.9023C7.80411 25.0044 7.97916 25.1065 8.16879 25.2086C8.2709 25.2524 8.37301 25.3107 8.47512 25.2378C8.59182 25.1503 8.48971 25.0336 8.46053 24.946C8.12503 24.1 7.62907 23.3415 7.17687 22.5538C6.3454 21.1096 5.38266 19.753 4.74082 18.2068C4.04064 16.5147 3.83642 14.7789 4.06982 12.9555C4.50743 9.61502 6.24329 7.12063 9.01484 5.29724C9.23365 5.15137 9.49622 5.07844 9.7442 4.96174C10.8528 4.42202 11.976 3.95523 13.2159 3.83853C14.8497 3.69266 16.4397 3.82395 18.0005 4.45119C19.4738 5.04926 20.8158 5.77862 21.9244 6.94558C23.529 8.63769 24.5355 10.6069 24.8564 12.9555C25.0315 14.2391 24.9294 15.479 24.6668 16.7189C24.4334 17.8421 23.9228 18.8778 23.3394 19.8552C22.7705 20.8179 22.2016 21.7661 21.6035 22.7142C21.1659 23.4144 20.7574 24.1292 20.4365 24.8877C20.3344 25.1357 20.2761 25.3399 20.6407 25.3691C20.772 25.3837 20.8596 25.4712 20.9325 25.5587C21.2388 25.8796 21.3847 26.3026 21.5597 26.6965C21.7056 27.0174 21.4722 27.2216 21.2096 27.3675C20.8158 27.5863 20.4219 27.7905 20.0135 27.9947C19.6051 28.199 19.3717 28.4615 19.3425 28.9721C19.2404 30.7517 19.3133 32.5459 19.2987 34.3255C19.2842 35.3466 18.9195 35.7697 17.8984 35.8426C17.3003 35.8864 16.7022 35.8572 16.1188 35.8572C15.6666 35.8572 15.5207 36.0031 15.5207 36.4407C15.5207 39.3289 15.5207 42.2318 15.5207 45.12C15.5207 45.2659 15.4915 45.4555 15.6811 45.5284C15.8708 45.6014 15.9729 45.4555 16.075 45.3388C16.921 44.4198 17.8692 43.6321 19.007 43.0924C20.772 42.2609 22.6246 41.8525 24.5939 42.1588C25.4399 42.2901 26.2568 42.4797 27.0299 42.8444C27.307 42.9757 27.4092 43.1799 27.4092 43.4862C27.38 45.1346 26.8403 46.6371 25.965 48.0082C24.8856 49.7149 23.3977 50.9986 21.5451 51.8446C19.8239 52.6178 18.0297 52.822 16.1625 52.5448C15.6374 52.4719 15.5061 52.5886 15.5061 53.1137C15.5061 55.1121 15.5061 57.1252 15.5061 59.1236C15.5061 59.78 15.2873 59.9988 14.6309 59.9988C13.4639 60.0134 13.3764 59.9259 13.3764 58.7735C13.4056 57.1981 13.4056 55.6081 13.4056 54.0181ZM13.7848 53.7556C13.7848 55.4185 13.7848 57.0814 13.7848 58.7443C13.7848 58.9194 13.7994 59.0798 13.814 59.2549C13.8286 59.532 13.989 59.6487 14.2662 59.6487C15.1122 59.6633 15.1706 59.6196 15.1706 58.7589C15.1706 58.4234 15.1706 58.0733 15.1706 57.7378C15.1706 56.1041 15.1706 54.4557 15.1706 52.822C15.1706 52.2968 15.3456 52.1218 15.8708 52.1364C16.0021 52.1364 16.1333 52.1656 16.2646 52.1801C17.4754 52.3552 18.6861 52.3406 19.8822 52.0197C20.8158 51.7717 21.691 51.4362 22.5371 50.9402C23.4998 50.3713 24.3167 49.6566 25.0023 48.8251C25.8192 47.8478 26.3735 46.71 26.7819 45.5138C26.9861 44.9304 27.0591 44.3031 27.1758 43.705C27.2195 43.5008 27.2195 43.2674 26.9861 43.1653C26.6944 43.034 26.3881 42.8298 26.0817 42.8152C25.0169 42.7423 23.9958 42.3776 22.9017 42.4651C22.4641 42.4943 22.0703 42.6402 21.6473 42.6985C21.1075 42.7715 20.5678 42.8152 20.0281 43.0486C18.9341 43.53 17.9421 44.1281 17.0377 44.8866C16.6585 45.2075 16.3084 45.5576 16.0312 45.9806C15.8854 46.1994 15.6811 46.3307 15.404 46.2578C15.1268 46.1849 15.1414 45.9369 15.1122 45.7181C15.0977 45.5576 15.0977 45.3972 15.0977 45.2513C15.0977 43.3841 15.0977 41.5024 15.0977 39.6353C15.0977 38.5704 15.0977 37.4909 15.0977 36.4261C15.0977 35.6967 15.3165 35.4633 16.0458 35.4488C16.6001 35.4342 17.169 35.4488 17.7233 35.4488C17.9276 35.4488 18.1318 35.4196 18.336 35.3758C18.6861 35.3029 18.9049 35.1278 18.9049 34.734C18.9049 34.4131 18.9341 34.1067 18.9341 33.7858C18.9486 32.225 18.9341 30.6496 18.9486 29.0888C18.9486 28.374 19.255 27.8489 19.9406 27.5863C20.2323 27.4696 20.5241 27.3383 20.8012 27.207C21.1951 27.032 21.268 26.7548 21.0054 26.4193C20.9179 26.3172 20.845 26.2005 20.8012 26.0693C20.7429 25.865 20.6262 25.7921 20.4074 25.7775C19.853 25.7629 19.6926 25.4858 19.9552 24.9898C20.101 24.6981 20.2469 24.4063 20.4074 24.1146C20.7866 23.3998 21.1367 22.6705 21.5743 21.9849C22.435 20.6429 23.3248 19.3154 23.8937 17.7984C24.1854 16.9815 24.4917 16.1646 24.5501 15.304C24.623 14.2829 24.623 13.2764 24.3605 12.2699C23.9374 10.5778 23.3248 8.98778 22.187 7.66035C20.5532 5.76403 18.5256 4.53871 16.0166 4.20321C13.2159 3.80936 10.634 4.37826 8.34384 6.09953C7.00182 7.1498 5.93697 8.44805 5.25137 10.038C4.84293 10.9716 4.53661 11.9198 4.37615 12.9263C4.01147 15.2165 4.62413 17.3316 5.65981 19.3446C6.3454 20.672 7.26439 21.8536 7.96457 23.1664C8.31466 23.8083 8.70851 24.4501 8.98567 25.1357C9.0586 25.3253 9.08778 25.5587 8.89814 25.7046C8.7231 25.8359 8.53347 25.8067 8.34384 25.7046C8.21255 25.6316 8.09585 25.5441 7.96457 25.4858C7.2498 25.1065 7.14769 25.1357 6.78302 25.865C6.76843 25.8942 6.75384 25.938 6.73926 25.9671C6.59338 26.2005 6.69549 26.3756 6.88513 26.5069C7.35191 26.8132 7.8187 27.1487 8.3876 27.28C8.73769 27.3675 9.0586 27.5426 9.37952 27.7176C9.90465 28.0093 10.0068 28.5053 10.0213 29.0596C10.0213 30.883 10.0214 32.7064 10.0359 34.5298C10.0359 35.1716 10.1964 35.3321 10.8382 35.3321C11.4801 35.3466 12.1219 35.3321 12.7637 35.3321C13.6389 35.3321 13.8723 35.5654 13.8723 36.4261C13.8723 37.9431 13.8723 39.4602 13.8723 40.9773C13.8723 41.1085 13.8578 41.2398 13.8432 41.3711C13.7556 42.0129 13.4785 41.9838 12.9825 41.7066C12.9096 41.6629 12.8658 41.5607 12.8075 41.4732C12.6324 41.2252 12.4866 40.9627 12.2386 40.773C11.6989 40.3792 11.1883 39.9562 10.634 39.5769C10.0651 39.1976 9.46704 38.833 8.81062 38.6142C7.83329 38.2932 6.81219 38.1619 5.77651 38.1328C4.58037 38.1036 3.4134 38.337 2.26102 38.6142C1.82341 38.7163 1.67754 38.9642 1.77965 39.4019C2.01304 40.5105 2.29019 41.6045 2.82992 42.6256C3.51551 43.953 4.41991 45.0908 5.57229 46.0098C6.59338 46.8413 7.78953 47.3518 9.0586 47.6727C10.2985 47.9936 11.5676 48.0666 12.8512 47.8332C13.5368 47.7019 13.7848 47.9353 13.7848 48.6501C13.7848 50.3713 13.7848 52.0634 13.7848 53.7556Z" fill="#F8C751"/>
<path d="M10.2258 1.30024C10.2258 0.716755 10.2404 0.731342 10.8239 0.54171C11.6845 0.249968 12.5598 0.133272 13.4496 0.016575C13.9893 -0.0563605 14.1643 0.104097 14.2519 0.64382C14.2956 0.920974 14.3977 1.18354 14.4269 1.4607C14.4998 2.01501 14.3102 2.29216 13.7705 2.32133C12.939 2.35051 12.1513 2.64225 11.3344 2.7006C10.6489 2.75895 10.4738 2.65684 10.3134 1.98583C10.2842 1.75244 10.2696 1.53363 10.2258 1.30024ZM10.8822 1.53363C10.8822 1.97124 11.0573 2.21923 11.3636 2.1317C11.9909 1.97124 12.6327 1.89831 13.2599 1.82537C13.3912 1.81079 13.5225 1.73785 13.6246 1.66492C13.9455 1.44611 13.7705 1.13978 13.7267 0.862626C13.6976 0.64382 13.5079 0.556297 13.3183 0.600058C12.7932 0.702168 12.2534 0.702168 11.7283 0.760516C11.174 0.848039 10.8822 1.13978 10.8822 1.53363Z" fill="#F8C751"/>
<path d="M15.6666 1.76689C15.7249 1.35846 15.7687 0.950017 15.9437 0.570753C16.1042 0.220663 16.3959 0.133141 16.7752 0.176902C17.417 0.264424 18.0005 0.541579 18.6423 0.643689C19.007 0.702037 19.3279 0.93543 19.7072 0.993779C19.8531 1.00837 19.926 1.13965 19.9698 1.28552C20.1156 1.73772 19.7364 2.83175 19.3425 3.09432C19.255 3.15267 19.1529 3.24019 19.0362 3.18184C18.6861 3.0068 18.2777 3.02138 17.9422 2.80258C17.7671 2.68588 17.5483 2.65671 17.3441 2.65671C16.8627 2.64212 16.4251 2.45249 15.9729 2.3212C15.6812 2.23368 15.652 2.01487 15.6666 1.76689ZM19.3425 1.82524C19.3425 1.54809 19.2112 1.43139 19.007 1.32928C18.5402 1.09589 18.0151 1.03754 17.5337 0.833321C16.8044 0.526992 16.4543 0.68745 16.2355 1.31469C16.0896 1.73772 16.1771 1.869 16.6147 1.97111C17.0815 2.08781 17.5775 2.16075 18.0151 2.35038C18.2922 2.46707 18.5694 2.52542 18.8466 2.56918C19.007 2.59836 19.1383 2.5546 19.1966 2.37955C19.255 2.17533 19.2988 1.9857 19.3425 1.82524Z" fill="#F8C751"/>
<path d="M0.423133 16.8063C0.393958 16.5291 0.539829 16.3832 0.773223 16.3249C1.03579 16.2519 1.29836 16.1936 1.56093 16.1498C1.91102 16.0915 2.14441 16.2228 2.20276 16.5729C2.33404 17.4043 2.55285 18.2066 2.83 18.9943C2.93211 19.2861 2.74248 19.4757 2.4945 19.607C2.30487 19.6945 2.08606 19.7674 1.88184 19.8404C1.54634 19.9717 1.31295 19.8841 1.16707 19.5632C0.802397 18.688 0.583591 17.7544 0.423133 16.8063Z" fill="#F8C751"/>
<path d="M28.9556 14.3994C28.9556 14.6766 28.9702 14.9537 28.9556 15.2309C28.941 15.581 28.7368 15.7998 28.3721 15.8144C27.9928 15.8289 27.6136 15.8435 27.2489 15.8144C26.855 15.7852 26.6216 15.5226 26.6216 15.1142C26.6216 14.2681 26.6071 13.4221 26.432 12.5906C26.3153 12.0071 26.6216 11.657 27.2051 11.5987C27.526 11.5695 27.8615 11.5403 28.1825 11.5258C28.445 11.5112 28.5909 11.6425 28.693 11.8904C28.9848 12.6927 28.8972 13.5534 28.9556 14.3994ZM27.0447 14.2244C27.0447 14.2681 27.0447 14.3265 27.0447 14.3702C27.0447 15.3913 27.0447 15.3767 28.0658 15.3184C28.3283 15.3038 28.4888 15.1871 28.4888 14.9245C28.518 14.0493 28.4888 13.1741 28.2846 12.3135C28.2262 12.0801 28.0658 11.978 27.8324 11.9925C27.6427 12.0071 27.4531 12.0217 27.2635 12.0947C26.9863 12.1822 26.8842 12.3572 26.928 12.649C27.0155 13.1887 27.0593 13.7138 27.0447 14.2244Z" fill="#F8C751"/>
<path d="M5.25117 6.42041C5.26576 6.62463 5.222 6.78509 5.11989 6.91637C4.87191 7.26646 4.63851 7.61655 4.37595 7.93747C4.05503 8.33132 3.79246 8.76893 3.58824 9.22113C3.44237 9.55664 3.1798 9.67333 2.8443 9.51288C2.34834 9.27948 1.91073 8.94398 1.4877 8.59389C1.29807 8.43343 1.35642 8.2438 1.44394 8.06875C1.76486 7.51444 2.08577 6.96014 2.40669 6.40583C2.64008 6.01197 2.85889 5.60354 3.20898 5.29721C3.48613 5.04923 3.8654 4.99088 4.17173 5.1951C4.44888 5.37014 4.69686 5.57436 4.95943 5.77858C5.17823 5.96821 5.28034 6.17243 5.25117 6.42041ZM3.00476 9.01691C3.23815 9.01691 3.34026 8.87104 3.44237 8.696C3.80705 8.01041 4.21549 7.35399 4.69686 6.74133C4.7698 6.65381 4.81356 6.56628 4.79897 6.44959C4.7698 6.20161 4.01127 5.5306 3.76329 5.54519C3.67576 5.54519 3.60283 5.60354 3.54448 5.66188C2.87347 6.39124 2.33375 7.20812 1.92531 8.09793C1.86697 8.22921 1.8232 8.41884 1.96908 8.50637C2.28999 8.71059 2.58173 8.97315 3.00476 9.01691Z" fill="#F8C751"/>
<path d="M1.13779 14.5161C0.918987 14.5161 0.70018 14.5161 0.481374 14.5161C0.145871 14.5161 0 14.341 0 14.0055C0.0145871 13.2616 -0.0291742 12.5031 0.233393 11.7737C0.335503 11.4965 0.320916 11.1756 0.364677 10.8839C0.437613 10.4171 0.743942 10.1837 1.21073 10.2129C1.72128 10.2421 2.17348 10.4463 2.62568 10.6359C2.99035 10.7818 2.97577 11.1756 2.85907 11.4674C2.5965 12.1092 2.58191 12.7948 2.52357 13.4658C2.49439 13.743 2.39228 14.0055 2.31935 14.2827C2.27559 14.4723 2.12971 14.5307 1.95467 14.5307C1.67752 14.5452 1.40036 14.5307 1.12321 14.5307C1.13779 14.5161 1.13779 14.5161 1.13779 14.5161ZM1.3566 14.2243C1.83797 14.2389 1.9255 14.1806 1.96926 13.7284C2.02761 13.0136 2.18806 12.3134 2.30476 11.6132C2.39228 11.0298 2.31935 10.8839 1.73586 10.7526C1.58999 10.7234 1.44412 10.7088 1.29825 10.6943C1.03568 10.6505 0.875225 10.7818 0.80229 11.0443C0.598071 11.7883 0.4522 12.5322 0.408439 13.2908C0.364677 14.0639 0.481374 14.1806 1.2399 14.2243C1.28366 14.2389 1.32743 14.2243 1.3566 14.2243Z" fill="#F8C751"/>
<path d="M5.14917 3.85286C5.16376 3.53195 5.3388 3.3569 5.54302 3.22562C6.28696 2.70048 7.0309 2.13159 7.84778 1.72315C8.24163 1.51893 8.47503 1.56269 8.70842 1.94195C8.86888 2.20452 9.01475 2.49626 9.14603 2.77342C9.32108 3.15268 9.26273 3.38608 8.91264 3.61947C8.41668 3.94038 7.90613 4.24671 7.41017 4.55304C7.1476 4.72809 6.89962 4.91772 6.63705 5.10735C6.40366 5.26781 6.18485 5.2824 5.99522 5.049C5.73265 4.74267 5.48467 4.43635 5.25128 4.11543C5.17834 4.02791 5.16376 3.91121 5.14917 3.85286ZM8.67925 2.94846C8.66466 2.74424 8.56255 2.58379 8.46044 2.40874C8.29998 2.117 8.15411 2.07324 7.83319 2.2337C7.24971 2.54002 6.72458 2.91929 6.18485 3.29855C5.65972 3.6924 5.63054 4.02791 6.06816 4.52387C6.27238 4.75726 6.41825 4.74267 6.63705 4.53846C7.11843 4.11543 7.62898 3.72158 8.22705 3.45901C8.44585 3.38608 8.67925 3.25479 8.67925 2.94846Z" fill="#F8C751"/>
<path d="M24.8127 4.61153C24.8127 5.01997 24.1271 5.98272 23.7916 6.09941C23.3686 6.24529 23.0769 5.9973 22.7851 5.76391C22.1141 5.23878 21.5306 4.62612 20.8159 4.15933C20.5387 3.98429 20.4804 3.61961 20.6554 3.35704C20.8888 3.02154 21.1076 2.67145 21.3702 2.35053C21.6619 1.97127 21.9682 1.91292 22.3329 2.24842C22.9456 2.81732 23.7041 3.19658 24.3168 3.76548C24.5793 4.01346 24.8565 4.24685 24.8127 4.61153ZM23.4561 5.63263C23.5874 5.63263 23.6895 5.58887 23.777 5.48676C23.9521 5.31171 24.098 5.12208 24.2876 4.96162C24.5501 4.71364 24.4772 4.49483 24.2438 4.29062C23.6166 3.73631 22.9893 3.19658 22.3037 2.71521C22.012 2.51099 21.7348 2.54016 21.5014 2.81732C21.4139 2.93402 21.3264 3.05071 21.2535 3.16741C20.9617 3.59044 20.9763 3.76548 21.3848 4.07181C21.9682 4.50942 22.5663 4.96162 23.106 5.45758C23.2081 5.57428 23.3102 5.64721 23.4561 5.63263Z" fill="#F8C751"/>
<path d="M25.965 6.34745C26.2713 6.31828 26.4609 6.46415 26.5776 6.68296C26.9715 7.49983 27.5695 8.20001 27.8029 9.10441C27.9342 9.5712 27.8613 9.80459 27.4383 10.038C27.1611 10.1839 26.8694 10.3151 26.5776 10.4173C26.3296 10.5048 26.1546 10.4464 25.9941 10.2568C25.9066 10.1401 25.8045 10.0234 25.7607 9.89212C25.469 9.17735 25.1335 8.50634 24.7396 7.84992C24.4333 7.36855 24.5792 6.9747 25.1043 6.72672C25.3961 6.58085 25.6149 6.2891 25.965 6.34745ZM25.892 6.77048C25.2648 6.78507 24.8855 7.32479 25.1627 7.84992C25.4982 8.46258 25.8629 9.06065 26.1546 9.70248C26.2275 9.87753 26.388 10.038 26.6214 9.95046C26.9423 9.81918 27.307 9.76083 27.4674 9.39615C27.4966 9.33781 27.4674 9.25028 27.4383 9.19194C27.1319 8.43341 26.7089 7.71864 26.2713 7.01846C26.1838 6.858 26.0525 6.77048 25.892 6.77048Z" fill="#F8C751"/>
<path d="M5.84948 23.6914C5.84948 23.8519 5.80572 23.9977 5.70361 24.0998C5.49939 24.2895 5.32435 24.5083 5.10554 24.6833C4.79921 24.9605 4.41995 24.9459 4.1282 24.6396C3.48637 23.9686 2.8883 23.2392 2.39234 22.4515C2.2173 22.1743 2.23188 21.8972 2.47986 21.6638C2.78619 21.3866 3.13628 21.1678 3.51555 20.9928C3.69059 20.9199 3.80729 20.9782 3.93857 21.0803C4.18655 21.2991 4.34701 21.5909 4.53664 21.8534C4.85756 22.291 5.19306 22.7141 5.58691 23.1079C5.76196 23.283 5.86407 23.4726 5.84948 23.6914ZM3.55931 21.445C3.35509 21.4888 3.18004 21.6346 2.99041 21.7805C2.72784 21.9847 2.71326 22.1743 2.8883 22.4661C3.23839 23.0204 3.63224 23.5455 4.06986 24.0415C4.5804 24.6396 4.94508 24.5812 5.35352 23.8956C5.44104 23.7498 5.44104 23.6185 5.33893 23.4872C4.84297 22.8891 4.37618 22.2765 3.93857 21.6346C3.85105 21.5325 3.74894 21.4304 3.55931 21.445Z" fill="#F8C751"/>
<path d="M28.4155 17.9733C28.3426 18.6297 28.1092 19.2423 27.8612 19.855C27.7153 20.2197 27.5257 20.5844 27.3653 20.949C27.2631 21.197 27.0735 21.2991 26.8401 21.2408C26.4171 21.1241 25.9795 20.9782 25.6294 20.6865C25.4106 20.4968 25.3814 20.278 25.4981 20.03C25.8336 19.3153 26.1108 18.5713 26.315 17.8128C26.4754 17.2293 26.7234 17.098 27.3069 17.2585C27.5257 17.3168 27.7591 17.3606 27.9779 17.4335C28.2551 17.4919 28.4155 17.6669 28.4155 17.9733ZM27.9779 18.1921C27.9633 17.9441 27.8904 17.7545 27.6424 17.6961C27.4674 17.6523 27.2923 17.6086 27.1173 17.5648C26.8839 17.5065 26.7526 17.6086 26.6942 17.842C26.5046 18.5276 26.2858 19.184 26.0232 19.8404C25.819 20.3218 25.9357 20.5698 26.4171 20.774C26.8985 20.9782 27.1173 20.8761 27.2923 20.3801C27.3215 20.2926 27.3798 20.2051 27.409 20.1176C27.6278 19.4757 27.8758 18.8485 27.9779 18.1921Z" fill="#F8C751"/>
<path d="M1.05028 19.9424C0.714781 19.3152 0.539736 18.6296 0.379278 17.944C0.277169 17.521 0.233407 17.098 0.145885 16.6749C0.0875364 16.3978 0.189646 16.179 0.437627 16.0915C0.889826 15.931 1.35661 15.7997 1.85257 15.8435C2.1589 15.8727 2.31936 16.0477 2.36312 16.354C2.50899 17.2001 2.71321 18.017 3.00495 18.8192C3.22376 19.4319 3.07789 19.7091 2.47982 19.9279C2.24643 20.0154 2.01303 20.1029 1.77964 20.1904C1.4879 20.278 1.22533 20.2196 1.05028 19.9424ZM1.29826 19.4757C1.45872 19.6945 1.64835 19.7966 1.89634 19.7091C2.08597 19.6361 2.26101 19.5778 2.45064 19.5048C2.68404 19.4027 2.74239 19.2423 2.65486 18.9943C2.3923 18.2795 2.18808 17.5502 2.02762 16.8062C1.89634 16.2519 1.66294 16.106 1.10863 16.2227C0.554323 16.3394 0.423039 16.5728 0.56891 17.1126C0.598085 17.2147 0.598085 17.3168 0.627259 17.4189C0.816891 18.1336 0.991936 18.8484 1.29826 19.4757Z" fill="#F8C751"/>
<path d="M24.6084 21.9702C24.7688 21.9848 24.9147 22.0286 25.046 22.1307C25.2502 22.3203 25.4544 22.5099 25.6878 22.6704C26.0087 22.9038 26.0233 23.1664 25.8191 23.4581C25.2356 24.3041 24.5063 25.0189 23.7186 25.6607C23.4706 25.865 23.208 25.8358 22.9746 25.5732C22.7996 25.3544 22.61 25.1502 22.4349 24.9314C22.114 24.523 22.114 24.3187 22.5078 23.9832C22.96 23.5894 23.3539 23.1518 23.7477 22.7142C23.9082 22.5391 24.0687 22.3495 24.2291 22.1744C24.3312 22.0577 24.4479 21.9702 24.6084 21.9702ZM24.6521 22.2765C24.5209 22.2765 24.4333 22.3641 24.3458 22.4516C23.7915 23.0497 23.2664 23.6623 22.6537 24.202C22.4787 24.3479 22.4495 24.5667 22.5954 24.7563C22.6975 24.8876 22.7996 25.0335 22.9163 25.1502C23.2664 25.5149 23.456 25.5441 23.8353 25.2085C24.4479 24.6834 25.0314 24.0999 25.4982 23.4435C25.5711 23.3268 25.6441 23.2247 25.6295 23.0788C25.5857 22.86 24.8855 22.262 24.6521 22.2765Z" fill="#F8C751"/>
<path d="M13.7849 53.7554C13.7849 52.0633 13.7849 50.3712 13.7849 48.6936C13.7849 47.9789 13.5369 47.7455 12.8513 47.8768C11.5677 48.1102 10.2986 48.0372 9.0587 47.7163C7.78963 47.3954 6.60807 46.8848 5.57239 46.0534C4.42001 45.1198 3.51561 43.9966 2.83002 42.6692C2.29029 41.6335 2.01314 40.554 1.77975 39.4454C1.69222 39.0078 1.82351 38.7598 2.26112 38.6577C3.4135 38.3806 4.58047 38.1472 5.77661 38.1764C6.81229 38.1909 7.83339 38.3368 8.81072 38.6577C9.46714 38.8765 10.0652 39.2266 10.6341 39.6205C11.1884 39.9852 11.699 40.4082 12.2387 40.8166C12.4867 41.0062 12.6325 41.2834 12.8076 41.5168C12.8659 41.5897 12.9097 41.7064 12.9826 41.7502C13.464 42.0273 13.7557 42.0565 13.8433 41.4147C13.8579 41.2834 13.8724 41.1521 13.8724 41.0208C13.8724 39.5038 13.8724 37.9867 13.8724 36.4697C13.8724 35.5944 13.639 35.3756 12.7638 35.3756C12.122 35.3756 11.4802 35.3756 10.8383 35.3756C10.1965 35.361 10.036 35.2152 10.036 34.5733C10.0215 32.75 10.0215 30.9266 10.0215 29.1032C10.0215 28.5489 9.90475 28.0529 9.37962 27.7612C9.0587 27.5861 8.73779 27.3965 8.3877 27.3236C7.8188 27.1923 7.35201 26.8568 6.88523 26.5504C6.69559 26.4337 6.60807 26.2441 6.73936 26.0107C6.75394 25.9815 6.76853 25.9378 6.78312 25.9086C7.14779 25.1793 7.2499 25.1501 7.96467 25.5293C8.09595 25.6023 8.21265 25.6898 8.34394 25.7482C8.51898 25.8503 8.7232 25.8794 8.89824 25.7482C9.08788 25.6023 9.07329 25.3689 8.98577 25.1793C8.70861 24.4937 8.31476 23.8664 7.96467 23.21C7.2499 21.8972 6.33092 20.7156 5.65991 19.3882C4.62423 17.3752 4.01157 15.26 4.37625 12.9699C4.53671 11.9779 4.84303 11.0152 5.25147 10.0816C5.93707 8.47704 7.00192 7.19338 8.3877 6.14311C10.6633 4.37807 13.2452 3.82376 16.0459 4.21761C18.5549 4.5677 20.5825 5.77843 22.2163 7.67475C23.354 9.00218 23.9667 10.6068 24.3897 12.2843C24.6523 13.2908 24.6377 14.3119 24.5794 15.3184C24.521 16.179 24.2147 16.9959 23.9229 17.8128C23.3686 19.3298 22.4642 20.6573 21.6036 21.9993C21.166 22.6849 20.8159 23.4142 20.4366 24.129C20.2762 24.4207 20.1303 24.7125 19.9844 25.0042C19.7365 25.5002 19.8823 25.7773 20.4366 25.7919C20.6554 25.7919 20.7721 25.8794 20.8305 26.0837C20.8597 26.2149 20.9472 26.317 21.0347 26.4337C21.2973 26.7692 21.2243 27.0464 20.8305 27.2215C20.5387 27.3527 20.2616 27.484 19.9698 27.6007C19.2843 27.8633 18.9779 28.3884 18.9779 29.1032C18.9633 30.664 18.9633 32.2394 18.9633 33.8002C18.9633 34.1211 18.9342 34.4275 18.9342 34.7484C18.9342 35.1277 18.7154 35.3173 18.3653 35.3902C18.161 35.434 17.9568 35.4632 17.7526 35.4632C17.1983 35.4632 16.6294 35.4486 16.0751 35.4632C15.3457 35.4777 15.1269 35.7111 15.1269 36.4405C15.1269 37.5053 15.1269 38.5848 15.1269 39.6496C15.1269 41.5168 15.1269 43.3985 15.1269 45.2657C15.1269 45.4261 15.1269 45.5866 15.1415 45.7325C15.1707 45.9367 15.1561 46.1993 15.4333 46.2722C15.7104 46.3451 15.9146 46.2138 16.0605 45.995C16.3377 45.572 16.6877 45.2073 17.067 44.901C17.9714 44.1425 18.9633 43.5298 20.0574 43.063C20.5971 42.8296 21.1368 42.7859 21.6765 42.7129C22.0996 42.6546 22.4934 42.5087 22.931 42.4795C24.0251 42.392 25.0462 42.7567 26.111 42.8296C26.4173 42.8588 26.7237 43.0484 27.0154 43.1797C27.2488 43.2818 27.2488 43.5152 27.205 43.7194C27.0883 44.3321 27.0154 44.9448 26.8112 45.5282C26.4028 46.7244 25.8484 47.8768 25.0316 48.8395C24.3314 49.671 23.5145 50.3857 22.5663 50.9546C21.7349 51.4506 20.8451 51.7861 19.9115 52.0341C18.7154 52.355 17.5046 52.3696 16.2939 52.1945C16.1626 52.18 16.0313 52.1508 15.9 52.1508C15.3749 52.1362 15.1999 52.3112 15.1999 52.8364C15.1999 54.4701 15.1999 56.1185 15.1999 57.7522C15.1999 58.0877 15.1999 58.4378 15.1999 58.7733C15.1999 59.634 15.1415 59.6777 14.2955 59.6631C14.0037 59.6631 13.8579 59.5464 13.8433 59.2693C13.8287 59.0942 13.8141 58.9338 13.8141 58.7587C13.7849 57.0812 13.7849 55.4183 13.7849 53.7554ZM15.1707 25.8503C15.1707 26.813 15.1853 27.7758 15.1707 28.7239C15.1707 29.0886 15.3457 29.2782 15.6812 29.3658C16.0459 29.4679 16.4252 29.4387 16.8044 29.4241C17.49 29.4095 17.6943 29.1761 17.7818 28.5197C17.8839 27.8049 17.986 27.0756 18.1465 26.3608C18.409 25.2668 18.8029 24.2165 19.328 23.21C19.7802 22.3348 20.247 21.4741 20.7575 20.6427C21.3264 19.7091 21.9683 18.8193 22.3913 17.8128C22.7997 16.85 23.1061 15.8581 23.179 14.8078C23.2519 13.8889 23.0915 12.999 22.8873 12.1092C22.7706 11.6133 22.5809 11.1611 22.3913 10.7089C22.0558 9.84823 21.5015 9.13346 20.8742 8.46245C20.422 7.98108 19.9844 7.45595 19.4009 7.12044C18.8321 6.79953 18.2632 6.4932 17.6651 6.23063C16.5419 5.73467 15.3603 5.54504 14.1496 5.5888C13.0556 5.63256 11.9907 5.86595 10.9842 6.34733C10.2403 6.712 9.5109 7.09127 8.88366 7.63099C7.14779 9.10429 6.15587 11.0152 5.82037 13.2762C5.6745 14.2389 5.74743 15.1725 5.98083 16.1207C6.18505 16.923 6.4622 17.7107 6.84147 18.4254C7.54165 19.7529 8.41687 20.9782 9.11705 22.3056C9.64219 23.2975 10.1527 24.304 10.5028 25.3835C10.8529 26.4629 11.0425 27.5715 11.1738 28.6947C11.2322 29.1907 11.4218 29.3803 11.9178 29.4095C12.2533 29.4387 12.6034 29.4387 12.9389 29.4095C13.5661 29.3803 13.7703 29.1615 13.7703 28.5197C13.7703 26.7547 13.7703 24.9896 13.7703 23.2392C13.7703 23.0058 13.7703 22.7724 13.8579 22.5536C13.96 22.2764 14.1642 22.1597 14.4559 22.1597C14.7477 22.1597 14.9665 22.2764 15.0832 22.5682C15.1561 22.7724 15.1707 22.9766 15.1707 23.1808C15.1707 24.0852 15.1707 24.975 15.1707 25.8503ZM17.6651 50.9109C18.0735 50.8671 18.4382 50.7796 18.8029 50.7942C19.7802 50.8088 20.6554 50.4149 21.5015 50.0065C22.4351 49.5397 23.1644 48.7958 23.85 48.0226C24.6231 47.1474 25.017 46.0534 25.44 44.9885C25.615 44.5363 25.4108 44.1279 24.944 44.0258C24.2876 43.8653 23.6166 43.6319 22.931 43.7632C22.2308 43.8945 21.5161 43.9237 20.8305 44.2008C19.7073 44.653 18.6716 45.2219 17.8255 46.0534C16.7899 47.0745 16.0459 48.3144 15.5937 49.7147C15.4187 50.2545 15.5937 50.6337 16.1626 50.7358C16.6586 50.8234 17.1983 50.8088 17.6651 50.9109ZM11.4802 46.5931C11.8157 46.6077 12.4137 46.5785 12.9826 46.3451C13.4057 46.1701 13.5515 45.9221 13.4348 45.4845C13.1577 44.5071 12.618 43.6465 12.1366 42.7713C11.5093 41.6627 10.4591 41.05 9.46714 40.3644C8.92742 39.9852 8.28559 39.8393 7.64376 39.6642C6.40385 39.3287 5.19312 39.285 3.96781 39.708C3.57396 39.8393 3.45726 40.0873 3.51561 40.4957C3.54478 40.7291 3.70524 40.9041 3.77818 41.1375C4.05533 41.9982 4.44918 42.7859 4.98891 43.5152C5.49945 44.2154 6.21422 44.6968 6.9144 45.1782C8.21265 46.0826 9.6276 46.5931 11.4802 46.5931ZM14.4559 34.0482C15.2436 34.0482 16.0313 34.0482 16.819 34.0482C17.3004 34.0482 17.4755 33.9023 17.563 33.421C17.6797 32.7937 17.6505 32.1665 17.563 31.5392C17.5046 31.1162 17.2712 30.8828 16.8336 30.8682C15.2582 30.8536 13.6828 30.8536 12.1074 30.8682C11.7719 30.8682 11.4802 31.0287 11.4072 31.3934C11.2759 32.0935 11.2759 32.7937 11.3926 33.4939C11.451 33.8732 11.6844 34.0482 12.0782 34.0482C12.8805 34.0336 13.6682 34.0336 14.4559 34.0482Z" fill="#F8C751"/>
<path d="M10.8821 1.53369C10.8821 1.13984 11.1884 0.833506 11.7427 0.775158C12.2679 0.71681 12.8076 0.71681 13.3327 0.6147C13.5223 0.570939 13.712 0.658461 13.7411 0.877268C13.7703 1.15442 13.96 1.46075 13.639 1.67956C13.5369 1.75249 13.4056 1.82543 13.2744 1.84002C12.6325 1.91295 12.0053 1.98589 11.378 2.14634C11.0571 2.21928 10.8821 1.9713 10.8821 1.53369Z" fill="#F8C751"/>
<path d="M19.3424 1.8252C19.2986 1.98566 19.2549 2.18988 19.1965 2.37951C19.1382 2.55455 19.0069 2.59832 18.8464 2.56914C18.5693 2.51079 18.2921 2.45245 18.015 2.35034C17.5774 2.1607 17.0814 2.08777 16.6146 1.97107C16.177 1.86896 16.0895 1.72309 16.2353 1.31465C16.4542 0.687408 16.7897 0.512363 17.5336 0.833279C18.015 1.0375 18.5401 1.09585 19.0069 1.32924C19.2257 1.43135 19.3424 1.53346 19.3424 1.8252Z" fill="#F8C751"/>
<path d="M27.0444 14.2245C27.0444 13.6993 27.0152 13.1742 26.9277 12.6636C26.884 12.3719 26.9861 12.1969 27.2632 12.1093C27.4529 12.051 27.6425 12.0218 27.8321 12.0072C28.0801 11.9926 28.226 12.0947 28.2843 12.3281C28.4885 13.1888 28.5177 14.0494 28.4885 14.9392C28.4739 15.2018 28.3281 15.3185 28.0655 15.3331C27.059 15.3914 27.059 15.3914 27.0444 14.3849C27.0444 14.3266 27.0444 14.2828 27.0444 14.2245Z" fill="#F8C751"/>
<path d="M3.00476 9.01689C2.59632 8.97313 2.28999 8.71056 1.96908 8.50634C1.83779 8.41882 1.86697 8.24377 1.92531 8.0979C2.33375 7.1935 2.87347 6.37662 3.54448 5.66186C3.60283 5.60351 3.66118 5.54516 3.76329 5.54516C4.01127 5.53057 4.75521 6.18699 4.79897 6.44956C4.81356 6.56626 4.75521 6.65378 4.69686 6.7413C4.21549 7.35396 3.80705 8.01038 3.44237 8.69597C3.34026 8.87102 3.22357 9.01689 3.00476 9.01689Z" fill="#F8C751"/>
<path d="M1.35661 14.2244C1.32744 14.2244 1.28368 14.2244 1.2545 14.2244C0.495975 14.1807 0.379278 14.064 0.423039 13.2909C0.466801 12.5323 0.612671 11.7738 0.816891 11.0445C0.875239 10.7819 1.0357 10.6506 1.31285 10.6798C1.45872 10.6944 1.60459 10.709 1.75046 10.7381C2.31936 10.8694 2.40688 11.0153 2.31936 11.5988C2.20266 12.2989 2.04221 12.9991 1.98386 13.7139C1.92551 14.1807 1.83799 14.2536 1.35661 14.2244Z" fill="#F8C751"/>
<path d="M8.67923 2.94849C8.67923 3.24023 8.44583 3.37151 8.24161 3.47362C7.64354 3.73619 7.13299 4.13004 6.65162 4.55307C6.43281 4.7427 6.28694 4.75729 6.08272 4.53848C5.63053 4.05711 5.6597 3.70702 6.19942 3.31316C6.72456 2.91931 7.24969 2.54005 7.84776 2.24831C8.16868 2.08785 8.31455 2.13161 8.47501 2.42335C8.56253 2.58381 8.66464 2.74427 8.67923 2.94849Z" fill="#F8C751"/>
<path d="M23.4559 5.63259C23.31 5.64718 23.2079 5.57424 23.1058 5.47213C22.5661 4.97617 21.968 4.52397 21.3845 4.08636C20.9761 3.78003 20.9615 3.60499 21.2533 3.18196C21.3408 3.06526 21.4137 2.93398 21.5012 2.83187C21.7346 2.55472 21.9972 2.51096 22.3035 2.72976C22.9891 3.21114 23.6164 3.75086 24.2436 4.30517C24.477 4.50939 24.5499 4.72819 24.2874 4.97617C24.1123 5.13663 23.9519 5.32626 23.7768 5.50131C23.6893 5.58883 23.5872 5.63259 23.4559 5.63259Z" fill="#F8C751"/>
<path d="M25.8922 6.77051C26.0526 6.77051 26.1839 6.85803 26.286 7.01849C26.7236 7.71867 27.1321 8.41885 27.453 9.19196C27.4822 9.25031 27.5113 9.35242 27.4821 9.39618C27.3217 9.74627 26.9424 9.81921 26.6361 9.95049C26.4027 10.038 26.2422 9.87756 26.1693 9.70251C25.8776 9.06068 25.5129 8.46261 25.1774 7.84995C24.8857 7.32482 25.2649 6.78509 25.8922 6.77051Z" fill="#F8C751"/>
<path d="M3.55939 21.445C3.74902 21.4304 3.85113 21.5179 3.92407 21.62C4.37627 22.2472 4.82847 22.8745 5.32443 23.4726C5.42654 23.6038 5.42654 23.7351 5.33902 23.881C4.93058 24.5666 4.5659 24.6249 4.05535 24.0269C3.63233 23.5309 3.22389 23.0204 2.8738 22.4515C2.69875 22.1597 2.71334 21.9701 2.97591 21.7659C3.18013 21.6492 3.35517 21.5033 3.55939 21.445Z" fill="#F8C751"/>
<path d="M27.9781 18.192C27.876 18.8338 27.628 19.4757 27.3946 20.1029C27.3654 20.1904 27.3071 20.278 27.2779 20.3655C27.1029 20.8614 26.8841 20.9636 26.4027 20.7593C25.9213 20.5551 25.8192 20.3217 26.0088 19.8258C26.2714 19.1693 26.5048 18.5129 26.6798 17.8273C26.7382 17.5939 26.8695 17.5064 27.1029 17.5502C27.2779 17.5939 27.453 17.6377 27.628 17.6815C27.8906 17.769 27.9781 17.944 27.9781 18.192Z" fill="#F8C751"/>
<path d="M24.6522 22.2764C24.8855 22.2618 25.5857 22.8599 25.6295 23.0787C25.6587 23.2245 25.5857 23.3267 25.4982 23.4434C25.0314 24.1144 24.4625 24.6833 23.8353 25.2084C23.456 25.5439 23.2664 25.5147 22.9163 25.15C22.7996 25.0333 22.6975 24.9021 22.5954 24.7562C22.4641 24.552 22.4933 24.3478 22.6537 24.2019C23.2664 23.6622 23.7915 23.0495 24.3458 22.4514C24.4333 22.3639 24.5209 22.2764 24.6522 22.2764Z" fill="#F8C751"/>
<path d="M15.1707 25.8503C15.1707 24.9605 15.1707 24.0707 15.1707 23.1955C15.1707 22.9913 15.1561 22.787 15.0832 22.5828C14.9811 22.2911 14.7477 22.1744 14.4559 22.1744C14.1788 22.1744 13.9746 22.2911 13.8579 22.5682C13.7703 22.787 13.7703 23.0204 13.7703 23.2538C13.7703 25.0189 13.7703 26.7839 13.7703 28.5343C13.7703 29.1616 13.5661 29.395 12.9389 29.4242C12.6034 29.4387 12.2533 29.4387 11.9178 29.4242C11.4072 29.3804 11.2322 29.1908 11.1738 28.7094C11.0425 27.5862 10.8529 26.4776 10.5028 25.3981C10.1527 24.3333 9.65678 23.3268 9.11705 22.3202C8.41687 20.9928 7.54165 19.7675 6.84147 18.4401C6.4622 17.7107 6.18505 16.9376 5.98083 16.1353C5.74744 15.1872 5.6745 14.239 5.82037 13.2908C6.15588 11.0298 7.13321 9.11893 8.88366 7.63105C9.51091 7.09133 10.2403 6.71206 10.9842 6.34739C11.9907 5.86601 13.0556 5.63262 14.1496 5.58886C15.3603 5.5451 16.5419 5.73473 17.6651 6.23069C18.2632 6.49326 18.8466 6.79959 19.401 7.1205C19.9844 7.45601 20.422 7.98114 20.8742 8.46252C21.5015 9.13352 22.0412 9.86288 22.3913 10.7089C22.5809 11.1611 22.7706 11.6279 22.8873 12.1093C23.0915 12.9991 23.2519 13.8889 23.179 14.8079C23.1061 15.8582 22.7997 16.8501 22.3913 17.8128C21.9683 18.8193 21.3264 19.7092 20.7576 20.6427C20.247 21.4742 19.7802 22.3494 19.328 23.2101C18.8029 24.2166 18.4236 25.2668 18.1465 26.3609C17.9714 27.0611 17.8693 27.7904 17.7818 28.5198C17.6943 29.1908 17.49 29.4096 16.8044 29.4242C16.4252 29.4387 16.0459 29.4533 15.6812 29.3658C15.3457 29.2783 15.1561 29.0887 15.1707 28.724C15.1707 27.7758 15.1707 26.8131 15.1707 25.8503ZM15.5354 25.7045C15.5354 26.6234 15.5354 27.557 15.5354 28.476C15.5354 28.8553 15.7688 29.0887 16.148 29.1032C16.3668 29.1178 16.5856 29.1032 16.8044 29.1032C17.2421 29.0887 17.3733 28.9865 17.4025 28.5489C17.4755 27.7904 17.6359 27.0319 17.8255 26.3025C18.0006 25.6315 18.2923 25.0043 18.5111 24.3624C18.8904 23.2684 19.401 22.2619 19.999 21.2992C20.9326 19.7967 21.9099 18.3234 22.508 16.6313C23.0185 15.2163 22.931 13.7722 22.6539 12.3573C22.508 11.6133 22.1433 10.884 21.7495 10.1838C20.8013 8.55004 19.4739 7.33931 17.7672 6.59537C16.5127 6.05565 15.1561 5.86601 13.7703 5.96812C11.3489 6.17234 9.39421 7.2372 7.89174 9.11893C7.06027 10.1546 6.44762 11.3362 6.2434 12.649C5.96624 14.3411 6.01 16.0332 6.82688 17.6232C7.38119 18.7172 7.95009 19.7967 8.63568 20.8178C9.70054 22.4078 10.4591 24.129 11.0134 25.9378C11.2759 26.7985 11.4364 27.6883 11.5385 28.5781C11.5823 28.9865 11.7136 29.0887 12.1366 29.1032C12.37 29.1032 12.6034 29.1032 12.8222 29.1032C13.2452 29.0887 13.3911 28.9574 13.4057 28.5198C13.4202 28.2572 13.4057 27.98 13.4057 27.7175C13.4057 26.1129 13.4057 24.5083 13.4202 22.9037C13.4202 22.364 13.8433 21.8972 14.3246 21.8097C14.7623 21.7368 15.2582 22.0431 15.4624 22.4953C15.55 22.6849 15.55 22.8746 15.55 23.0642C15.5354 23.954 15.5354 24.8292 15.5354 25.7045Z" fill="#F8C751"/>
<path d="M17.6649 50.9108C17.1981 50.7941 16.673 50.8086 16.1624 50.7211C15.6081 50.619 15.4185 50.2398 15.5935 49.7C16.0457 48.2997 16.7897 47.0598 17.8254 46.0387C18.6714 45.2072 19.7071 44.6237 20.8303 44.1861C21.5159 43.909 22.2307 43.8798 22.9308 43.7485C23.6018 43.6172 24.2874 43.8506 24.9439 44.0111C25.4252 44.1278 25.6149 44.5362 25.4398 44.9738C25.0168 46.0387 24.6229 47.1473 23.8498 48.0079C23.1642 48.781 22.4203 49.525 21.5013 49.9918C20.6698 50.4148 19.7946 50.7941 18.8027 50.7795C18.438 50.7941 18.0733 50.867 17.6649 50.9108ZM23.2226 44.259C21.6618 44.2736 20.2322 44.7112 18.9777 45.6448C18.1463 46.2575 17.4461 47.0014 16.9064 47.8621C16.5417 48.431 16.25 49.0436 16.1041 49.7146C16.0457 49.9918 16.0749 50.2397 16.3958 50.3273C16.7897 50.4294 17.1981 50.5461 17.6066 50.5461C19.6487 50.5169 21.4284 49.8167 22.9017 48.4018C23.8498 47.4974 24.4917 46.3888 24.9439 45.178C25.1189 44.7112 24.9876 44.507 24.4917 44.4049C24.0686 44.2882 23.6456 44.2445 23.2226 44.259Z" fill="#F8C751"/>
<path d="M11.4799 46.5933C9.62736 46.6079 8.21241 46.0827 6.91416 45.1783C6.19939 44.6824 5.49921 44.2156 4.98866 43.5154C4.44894 42.7861 4.05509 41.9984 3.77793 41.1377C3.705 40.9189 3.54454 40.7439 3.51537 40.4959C3.45702 40.0874 3.57371 39.8395 3.96757 39.7082C5.19288 39.2852 6.40361 39.3289 7.64351 39.6644C8.28534 39.8395 8.92718 39.9853 9.4669 40.3646C10.4588 41.0502 11.5237 41.6774 12.1363 42.7715C12.6323 43.6467 13.1574 44.4927 13.4346 45.4847C13.5513 45.9077 13.42 46.1703 12.9824 46.3453C12.4135 46.5641 11.83 46.5933 11.4799 46.5933ZM11.2173 46.2432C11.6841 46.2578 12.1509 46.1994 12.6031 46.0827C12.9824 45.9806 13.1137 45.791 13.0116 45.4555C12.749 44.4782 12.3114 43.5883 11.6695 42.8152C10.7506 41.7066 9.65653 40.773 8.25617 40.3208C7.01627 39.9124 5.76178 39.679 4.46353 40.0437C3.9238 40.1896 3.80711 40.4375 4.05509 40.9481C4.24472 41.3274 4.376 41.7358 4.58022 42.1005C6.02435 44.697 8.24158 46.0682 11.2173 46.2432Z" fill="#F8C751"/>
<path d="M14.456 34.0483C13.6683 34.0483 12.8806 34.0338 12.0929 34.0483C11.6991 34.0483 11.4657 33.8733 11.4073 33.494C11.2906 32.7939 11.2906 32.0937 11.4219 31.3935C11.4948 31.0288 11.7866 30.8684 12.1221 30.8684C13.6975 30.8538 15.2729 30.8538 16.8483 30.8684C17.2859 30.8684 17.5193 31.1018 17.5777 31.5394C17.6652 32.1666 17.6798 32.7939 17.5777 33.4211C17.4901 33.9025 17.3151 34.0338 16.8337 34.0483C16.0314 34.0483 15.2437 34.0483 14.456 34.0483ZM14.456 33.6253C15.1562 33.6253 15.871 33.6107 16.5711 33.6253C16.9212 33.6253 17.0963 33.4649 17.0963 33.1294C17.0963 32.6626 17.0963 32.2104 17.0963 31.7436C17.0963 31.4081 16.9212 31.2476 16.5711 31.2476C15.1708 31.2622 13.785 31.2622 12.3846 31.2476C12.0346 31.2476 11.8741 31.4227 11.8595 31.7582C11.8449 32.1958 11.8449 32.6334 11.8595 33.071C11.8741 33.5232 11.9908 33.6253 12.4284 33.6253C13.0994 33.6399 13.785 33.6253 14.456 33.6253Z" fill="#F8C751"/>
</svg>
