<svg width="100" height="100" viewBox="0 0 100 100" fill="none" xmlns="http://www.w3.org/2000/svg">
<rect width="100" height="100" rx="50" fill="#515981" fill-opacity="0.5"/>
<g clip-path="url(#clip0)">
<path d="M50.5983 59.7175C45.2231 59.7175 40.7656 55.4131 40.7656 50.1305C40.7001 44.7175 45.092 40.2827 50.5327 40.2827C55.9079 40.2827 60.2998 44.6523 60.2998 50.0001C60.2998 55.2827 55.9734 59.6523 50.5983 59.7175Z" fill="#F8C751"/>
<path d="M74 51.4349C73.6723 59.1305 69.477 65.9783 61.5453 70.6088C60.3654 71.261 59.3822 71.0001 58.7267 69.9566C58.0056 68.8479 58.53 67.8696 59.6444 67.2175C62.4631 65.587 64.8229 63.5653 66.7239 60.8914C73.0168 51.8914 70.2636 39.0436 60.7587 33.4349C60.3654 33.2392 60.0377 32.9783 59.6444 32.7827C58.6611 32.1305 58.0056 31.3479 58.5956 30.1088C59.1855 29.0001 60.2999 28.8044 61.6765 29.4566C64.364 30.8914 66.7239 32.7175 68.5593 35.0653C72.0335 39.3697 74 44.3262 74 51.4349Z" fill="#CFCFCF"/>
<path d="M27 49.8696C27.4589 41 31.2608 34.087 39.1269 29.587C40.6346 28.7391 41.6834 28.8696 42.4045 29.9783C43.06 31.087 42.7322 32.0652 41.0934 32.9783C33.5551 36.8913 29.2943 46.2174 31.5886 54.7609C32.8996 59.587 35.6527 63.4348 39.848 66.2391C40.5035 66.6957 41.2245 67.087 41.8801 67.5435C42.7978 68.2609 42.9944 69.1739 42.3389 70.087C41.6834 71 40.8312 71.3261 39.7824 70.7391C33.6206 67.3478 29.4909 62.3261 27.7211 55.5435C27.2622 53.7174 27 51.8261 27 49.8696Z" fill="#CFCFCF"/>
</g>
<defs>
<clipPath id="clip0">
<rect width="47" height="42" fill="white" transform="translate(27 29)"/>
</clipPath>
</defs>
</svg>
