<svg width="250" height="113" viewBox="0 0 250 113" fill="none" xmlns="http://www.w3.org/2000/svg">
<path d="M110.456 51.3341C111.12 51.2677 111.452 50.8028 111.452 50.2051C111.452 49.4082 111.452 48.5449 111.452 47.748C111.519 45.6893 111.452 43.5642 111.718 41.5055C112.116 38.5171 114.109 36.9233 117.164 36.8569C119.289 36.8569 121.48 36.8569 123.605 36.8569C128.387 36.7905 133.168 36.7241 137.95 36.6577C138.282 36.6577 138.547 36.5913 138.879 36.5913C140.075 36.5249 140.805 35.9272 141.336 34.8646C142.997 31.7434 144.657 28.6886 146.384 25.6338C147.247 24.1063 148.509 23.7079 150.169 24.2392C151.563 24.7704 152.892 25.5009 154.021 26.4971C155.216 27.4932 155.415 28.755 154.618 30.216C154.153 31.0129 153.755 31.7434 153.29 32.5403C153.356 32.6067 153.356 32.6067 153.423 32.6731C154.22 32.3411 155.083 32.009 155.814 31.6106C159.533 29.4855 163.251 27.3604 166.97 25.1689C170.623 22.9774 174.209 20.7195 178.127 18.9264C184.037 16.2701 190.28 15.0747 196.788 15.4732C202.366 15.8052 207.679 17.1334 212.726 19.5905C218.172 22.2469 222.688 26.0322 226.473 30.7473C227.403 31.8762 228.332 33.0716 229.129 34.3334C229.793 35.3959 230.325 36.5913 230.922 37.7866C232.317 40.7086 233.645 43.6306 234.442 46.7519C235.438 50.4708 235.637 54.2561 235.438 58.0414C234.973 67.0066 231.653 74.8429 226.274 81.8159C222.422 86.7966 217.441 90.4491 211.796 93.1054C207.812 95.0313 203.628 96.1602 199.245 96.6915C194.929 97.2228 190.612 96.8907 186.362 96.0938C181.448 95.2305 177.065 93.1054 172.814 90.5819C168.232 87.7927 163.65 85.0035 159.001 82.2143C157.407 81.2846 155.681 80.5541 154.021 79.6908C153.755 79.558 153.423 79.4916 153.157 79.3587C153.091 79.4251 153.024 79.4251 153.024 79.4916C152.892 80.8197 152.028 81.6166 150.966 82.2143C149.77 82.8784 148.509 83.4761 147.18 84.0074C146.251 84.4058 145.255 84.0738 144.723 83.2105C143.926 82.0151 143.262 80.7533 142.598 79.558C142.2 78.8275 141.801 78.0306 141.403 77.2336C140.805 76.1711 139.875 75.507 138.614 75.507C134.563 75.4406 130.445 75.3078 126.394 75.3078C123.406 75.3078 120.418 75.3078 117.429 75.3078C116.234 75.3078 115.038 75.1085 113.976 74.4445C112.316 73.4483 111.718 71.8545 111.585 70.0615C111.452 67.6707 111.452 65.3464 111.452 62.9557C111.452 62.6236 111.452 62.358 111.452 62.026C111.386 61.229 111.187 61.0298 110.456 60.8306C110.456 57.7094 110.456 54.5217 110.456 51.3341ZM151.032 51.4669L151.032 51.5333C154.685 51.5333 158.337 51.4669 162.056 51.5333C164.38 51.5997 166.505 53.6584 166.638 55.8499C166.771 58.1742 164.845 60.565 162.521 60.8306C160.861 61.0298 159.2 60.897 157.54 60.897C151.962 60.897 146.45 60.897 140.872 60.897C140.606 60.897 140.34 60.897 140.141 60.9634C139.344 61.0962 138.813 61.4947 138.746 62.2916C138.68 63.5534 138.746 64.7487 138.813 66.0105C138.813 66.2761 139.211 66.5418 139.477 66.6746C139.676 66.8074 139.942 66.741 140.207 66.8074C144.391 67.2723 148.575 68.1356 152.493 69.5966C156.146 70.9912 159.931 72.1201 163.318 74.046C166.439 75.7726 169.494 77.6321 172.549 79.4916C176.6 81.9487 180.717 84.3394 185.166 86.0661C189.018 87.5271 193.069 87.9919 197.186 87.5935C200.64 87.2614 204.027 86.6637 207.148 85.0699C211.265 83.0112 215.117 80.4877 218.172 77.0344C225.211 68.9989 227.403 59.5688 225.278 49.209C223.949 42.5681 220.496 37.0561 215.383 32.6067C212.261 29.8839 208.874 27.6924 204.956 26.3643C202.366 25.4345 199.644 25.1025 196.854 24.9033C192.139 24.5712 187.491 24.9697 183.174 27.0948C179.455 28.9542 175.803 30.8801 172.283 33.0052C168.498 35.2631 164.845 37.7202 160.794 39.5797C154.153 42.6345 147.247 44.8924 139.942 45.6229C138.946 45.6893 138.746 45.9549 138.68 46.9511C138.614 47.9472 138.614 48.9434 138.68 50.0059C138.68 51.2013 139.012 51.4669 140.207 51.4669C143.794 51.4669 147.446 51.4669 151.032 51.4669ZM121.347 56.1155C121.347 58.7719 121.347 61.4283 121.347 64.0846C121.347 65.2136 121.679 65.5456 122.808 65.5456C124.402 65.5456 125.996 65.5456 127.59 65.5456C128.852 65.5456 129.184 65.2136 129.184 63.8854C129.184 58.7055 129.184 53.592 129.184 48.4121C129.184 47.1503 128.918 46.7519 127.656 46.7519C126.062 46.6854 124.469 46.7519 122.808 46.7519C121.48 46.8183 121.347 46.9511 121.347 48.3457C121.347 51.002 121.347 53.592 121.347 56.1155Z" fill="#9AA1B8" fill-opacity="0.4"/>
<path d="M224.746 21.5164C223.817 21.5828 223.02 21.2507 222.289 20.7195C220.231 19.2585 218.238 17.7311 216.18 16.3365C215.449 15.8716 214.652 15.4732 213.855 15.1411C212.062 14.2778 211.597 13.016 212.461 11.223C213.39 9.2971 214.652 7.63688 216.047 6.04306C216.644 5.31256 217.441 5.11333 218.371 5.57819C219.168 5.97665 219.965 6.44151 220.762 6.90638C223.086 8.23456 225.41 9.56274 227.668 11.0237C228.465 11.555 229.196 12.2191 229.793 12.9496C230.922 14.2778 230.922 15.8716 229.993 17.3326C229.329 18.3287 228.598 19.2585 227.868 20.1882C227.071 21.1179 226.075 21.7156 224.746 21.5164Z" fill="#9AA1B8" fill-opacity="0.4"/>
<path d="M198.05 0.132812C200.374 0.199221 202.632 0.398449 204.824 1.12895C205.687 1.39459 206.617 1.39459 207.547 1.5274C209.937 1.79304 211.199 3.32045 211 5.71118C210.801 7.76986 210.07 9.56291 209.207 11.356C208.742 12.3521 207.679 12.8834 206.484 12.6177C205.488 12.4185 204.492 11.9536 203.496 11.7544C201.636 11.4224 199.71 11.356 197.784 11.0239C196.589 10.8247 195.46 10.4926 194.331 10.1606C193.733 9.96136 193.335 9.43009 193.269 8.83241C193.202 8.23472 193.202 7.57063 193.202 6.97295C193.202 5.51195 193.269 4.11736 193.269 2.65636C193.269 0.99613 194.132 0.132812 195.792 0.132812C196.523 0.132812 197.253 0.132812 198.05 0.132812Z" fill="#9AA1B8" fill-opacity="0.4"/>
<path d="M231.52 96.4261C231.055 96.2268 230.192 96.094 229.461 95.6291C228.333 94.8986 227.204 94.1017 226.207 93.172C225.012 92.0431 224.879 90.4492 225.809 89.1211C226.805 87.7265 227.934 86.4647 228.997 85.1365C230.325 83.4763 231.719 81.8161 233.048 80.0894C233.977 78.8941 235.638 78.4956 236.899 79.3589C238.294 80.2886 239.622 81.2184 240.95 82.2809C242.677 83.6091 242.677 85.0701 241.349 86.7967C239.821 88.6562 238.493 90.7149 236.966 92.5743C236.102 93.6369 235.173 94.633 234.243 95.6291C233.645 96.1604 232.848 96.4925 231.52 96.4261Z" fill="#9AA1B8" fill-opacity="0.4"/>
<path d="M195.593 112.298C194.198 112.298 192.737 112.298 191.343 112.298C189.35 112.298 188.221 111.169 188.221 109.177C188.221 107.915 188.155 106.587 188.221 105.325C188.288 103.266 189.55 102.071 191.608 102.004C193.999 101.938 196.456 101.805 198.847 101.672C199.577 101.606 200.308 101.473 201.038 101.34C203.628 100.875 205.355 102.137 205.621 104.794C205.753 105.989 205.82 107.251 205.886 108.446C205.953 109.973 205.421 110.837 204.027 111.235C202.699 111.634 201.304 111.899 199.909 112.032C198.448 112.165 196.987 112.032 195.526 112.032C195.593 112.165 195.593 112.231 195.593 112.298Z" fill="#9AA1B8" fill-opacity="0.4"/>
<path d="M189.483 6.77372C189.417 7.30499 189.417 7.83627 189.35 8.36754C189.151 9.5629 188.288 10.2934 186.96 10.4926C183.772 11.0239 180.584 11.8208 177.53 12.9498C177.198 13.0826 176.799 13.149 176.467 13.2818C174.94 13.6139 173.744 13.149 173.08 11.7544C172.416 10.3598 171.885 8.89881 171.42 7.43781C171.022 6.10963 171.619 4.91426 172.881 4.25017C175.072 3.05481 177.53 2.39072 179.92 1.79303C181.78 1.39458 183.706 1.06254 185.565 0.73049C187.093 0.464853 187.956 1.06254 188.487 2.45713C188.753 3.18763 188.952 3.91813 189.151 4.64863C189.284 5.31272 189.35 6.04322 189.483 6.77372Z" fill="#9AA1B8" fill-opacity="0.4"/>
<path d="M243.341 78.0306C241.415 77.8978 239.622 77.3001 237.962 76.1712C237.497 75.8391 237.165 75.3743 236.766 74.9094C236.368 74.4445 236.368 73.9133 236.634 73.3156C236.899 72.7179 237.032 71.9874 237.231 71.3897C237.497 70.5928 237.829 69.8623 238.161 69.0654C238.294 68.6669 238.493 68.2021 238.493 67.8036C238.493 66.0106 239.024 64.3503 239.556 62.6237C239.688 62.2253 239.821 61.7604 240.02 61.3619C240.352 60.6978 240.884 60.233 241.614 60.1666C243.806 60.1002 245.931 60.4322 247.923 61.4947C249.318 62.2917 249.583 63.6862 249.318 65.1472C249.052 66.6747 248.587 68.1357 248.189 69.5967C247.99 70.3936 247.79 71.2569 247.591 72.0538C247.325 72.9171 247.06 73.714 246.794 74.5109C246.595 75.1086 246.396 75.7063 246.263 76.304C246.064 77.1673 245.267 77.765 244.204 77.8978C243.939 78.0306 243.673 78.0306 243.341 78.0306Z" fill="#9AA1B8" fill-opacity="0.4"/>
<path d="M244.271 39.314C246.661 39.314 247.126 39.646 247.658 41.2398C248.853 44.4939 249.384 47.9472 249.849 51.4004C249.915 52.0645 250.048 52.6622 249.982 53.3263C249.982 54.5881 249.451 55.385 248.255 55.717C246.661 56.1155 245.001 56.5139 243.341 56.7132C241.149 56.9124 240.021 55.717 239.821 53.5255C239.622 51.4668 239.157 49.4746 238.892 47.4823C238.692 46.0213 238.427 44.5603 238.36 43.0993C238.294 41.4391 238.958 40.4429 240.552 40.0445C242.013 39.5796 243.54 39.4468 244.271 39.314Z" fill="#9AA1B8" fill-opacity="0.4"/>
<path d="M237.563 36.7906C236.368 36.7906 235.637 36.1929 235.106 35.3296C234.376 34.2006 233.645 33.0053 232.915 31.8763C231.786 30.1497 230.657 28.4894 229.528 26.8292C229.329 26.5636 229.129 26.2979 228.997 25.9659C228.532 25.0362 228.731 24.04 229.528 23.3759C230.79 22.3134 232.051 21.3173 233.313 20.3211C234.376 19.5242 235.837 19.657 236.766 20.6532C237.497 21.4501 238.095 22.3134 238.692 23.1767C240.286 25.5674 241.747 27.9582 243.274 30.3489C243.407 30.6145 243.54 30.8802 243.673 31.1458C244.138 32.4076 244.005 33.4701 242.876 34.2006C241.349 35.1304 239.755 35.8609 238.161 36.6578C237.962 36.7906 237.696 36.7906 237.563 36.7906Z" fill="#9AA1B8" fill-opacity="0.4"/>
<path d="M225.942 100.145C225.875 101.672 225.211 102.602 223.883 103.266C222.024 104.262 220.23 105.458 218.305 106.387C217.043 107.051 215.715 107.516 214.386 107.915C212.593 108.446 211.398 107.915 210.535 106.321C209.937 105.126 209.406 103.93 208.941 102.668C208.542 101.54 208.808 100.543 209.804 99.8129C210.402 99.348 211.066 99.016 211.73 98.6839C214.121 97.4886 216.512 96.2268 218.902 95.0314C219.5 94.7658 220.098 94.4337 220.695 94.3009C221.891 94.1017 222.887 94.633 223.617 95.5627C224.281 96.4924 224.879 97.4886 225.41 98.4847C225.676 99.016 225.742 99.6136 225.942 100.145Z" fill="#9AA1B8" fill-opacity="0.4"/>
<path d="M158.802 23.8408C157.939 23.8408 157.142 23.5752 156.544 22.8447C155.88 22.1142 155.15 21.4501 154.486 20.7196C153.157 19.2586 153.29 17.5319 154.685 16.1373C157.208 13.6138 159.998 11.4223 162.986 9.49643C164.713 8.36747 166.107 8.5667 167.369 10.1605C168.232 11.2895 168.896 12.4848 169.627 13.6802C170.158 14.6763 170.092 15.4732 169.228 16.2702C168.631 16.8678 168.033 17.3991 167.369 17.7976C165.244 19.2586 163.252 20.8524 161.392 22.6454C160.595 23.4423 159.798 23.8408 158.802 23.8408Z" fill="#9AA1B8" fill-opacity="0.4"/>
<path d="M180.584 110.239C178.99 110.106 177.264 109.641 175.604 108.977C173.279 108.047 171.021 107.051 168.763 106.055C167.635 105.524 167.17 104.528 167.502 103.332C167.9 101.739 168.498 100.145 169.494 98.8165C170.49 97.4883 171.619 97.2227 173.146 97.8868C175.803 99.1486 178.592 100.145 181.448 100.942C181.58 101.008 181.713 101.008 181.912 101.074C183.905 101.739 184.569 102.867 184.104 104.926C183.838 106.122 183.506 107.25 183.174 108.379C182.842 109.575 181.912 110.239 180.584 110.239Z" fill="#9AA1B8" fill-opacity="0.4"/>
<path d="M149.903 90.3828C150.036 89.5859 150.302 88.9218 150.833 88.4569C151.896 87.5272 152.958 86.5975 154.087 85.7342C155.415 84.738 156.611 84.8708 157.673 86.1326C159.798 88.5897 162.255 90.7813 164.713 92.8399C166.439 94.3009 165.908 96.1604 164.912 97.2893C164.314 97.9534 163.717 98.6839 163.119 99.4144C161.99 100.942 160.728 101.141 159.134 100.079C155.814 97.8206 153.025 94.965 150.501 91.8438C150.302 91.4453 150.169 90.9141 149.903 90.3828Z" fill="#9AA1B8" fill-opacity="0.4"/>
<path d="M139.544 60.9633C138.88 61.0297 138.548 61.4946 138.548 62.0922C138.548 62.8892 138.548 63.7525 138.548 64.5494C138.481 66.6081 138.548 68.7332 138.282 70.7918C137.884 73.7803 135.891 75.3741 132.836 75.4405C130.711 75.4405 128.52 75.4405 126.395 75.4405C121.613 75.5069 116.832 75.5733 112.05 75.6397C111.718 75.6397 111.453 75.7061 111.121 75.7061C109.925 75.7725 109.195 76.3702 108.664 77.4327C107.003 80.554 105.343 83.6088 103.616 86.6636C102.753 88.191 101.491 88.5895 99.8312 88.0582C98.4366 87.5269 97.1084 86.7964 95.9794 85.8003C94.7841 84.8042 94.5848 83.5424 95.3818 82.0814C95.8466 81.2845 96.2451 80.554 96.7099 79.7571C96.6435 79.6907 96.6435 79.6907 96.5771 79.6242C95.7802 79.9563 94.9169 80.2883 94.1864 80.6868C90.4675 82.8119 86.7486 84.937 83.0297 87.1285C79.3772 89.32 75.7911 91.5779 71.8729 93.3709C65.9625 96.0273 59.7201 97.2227 53.212 96.8242C47.6336 96.4922 42.3209 95.164 37.2738 92.7068C31.8282 90.0505 27.3124 86.2651 23.5271 81.5501C22.5974 80.4211 21.6676 79.2258 20.8707 77.964C20.2066 76.9015 19.6754 75.7061 19.0777 74.5107C17.6831 71.5887 16.3549 68.6667 15.558 65.5455C14.5619 61.8266 14.3626 58.0413 14.5619 54.256C15.0267 45.2907 18.3472 37.4544 23.7263 30.4815C27.5781 25.5008 32.5587 21.8483 38.2035 19.1919C42.1881 17.2661 46.3718 16.1371 50.7548 15.6058C55.0714 15.0746 59.388 15.4066 63.6382 16.2035C68.5525 17.0669 72.9355 19.1919 77.1857 21.7155C81.7679 24.5047 86.3501 27.2939 90.9988 30.083C92.5926 31.0128 94.3192 31.7433 95.9794 32.6066C96.2451 32.7394 96.5771 32.8058 96.8428 32.9386C96.9092 32.8722 96.9756 32.8722 96.9756 32.8058C97.1084 31.4776 97.9717 30.6807 99.0343 30.083C100.23 29.4189 101.491 28.8213 102.82 28.29C103.749 27.8915 104.745 28.2236 105.277 29.0869C106.074 30.2823 106.738 31.544 107.402 32.7394C107.8 33.4699 108.199 34.2668 108.597 35.0637C109.195 36.1263 110.125 36.7904 111.386 36.7904C115.437 36.8568 119.555 36.9896 123.606 36.9896C126.594 36.9896 129.582 36.9896 132.571 36.9896C133.766 36.9896 134.962 37.1888 136.024 37.8529C137.684 38.8491 138.282 40.4429 138.415 42.2359C138.548 44.6266 138.548 46.951 138.548 49.3417C138.548 49.6737 138.548 49.9394 138.548 50.2714C138.614 51.0683 138.813 51.2676 139.544 51.4668C139.544 54.588 139.544 57.7757 139.544 60.9633ZM98.9678 60.8305L98.9678 60.7641C95.3153 60.7641 91.6628 60.8305 87.9439 60.7641C85.6196 60.6976 83.4945 58.639 83.3617 56.4475C83.2289 54.1231 85.1547 51.7324 87.4791 51.4668C89.1393 51.2676 90.7995 51.4004 92.4598 51.4004C98.0381 51.4004 103.55 51.4004 109.128 51.4004C109.394 51.4004 109.66 51.4004 109.859 51.334C110.656 51.2011 111.187 50.8027 111.254 50.0058C111.32 48.744 111.254 47.5486 111.187 46.2869C111.187 46.0212 110.789 45.7556 110.523 45.6228C110.324 45.49 110.058 45.5564 109.793 45.49C105.609 45.0251 101.425 44.1618 97.5069 42.7008C93.8543 41.3062 90.069 40.1772 86.6822 38.2514C83.5609 36.5247 80.5061 34.6653 77.4513 32.8058C73.4003 30.3487 69.283 27.9579 64.8336 26.2313C60.9818 24.7703 56.9309 24.3054 52.8135 24.7039C49.3602 25.0359 45.9734 25.6336 42.8521 27.2274C38.7348 29.2861 34.8831 31.8097 31.8282 35.2629C24.7889 43.2984 22.5974 52.7285 24.7225 63.0884C26.0506 69.7293 29.5039 75.2412 34.6174 79.6906C37.7386 82.4134 41.1255 84.6049 45.0436 85.9331C47.6336 86.8628 50.3564 87.1949 53.1456 87.3941C57.8606 87.7262 62.5092 87.3277 66.8258 85.2026C70.5447 83.3432 74.1972 81.4173 77.7169 79.2922C81.5022 77.0343 85.1547 74.5772 89.2057 72.7177C95.8466 69.6629 102.753 67.405 110.058 66.6745C111.054 66.6081 111.254 66.3424 111.32 65.3463C111.386 64.3502 111.386 63.354 111.32 62.2915C111.32 61.0961 110.988 60.8305 109.793 60.8305C106.206 60.8305 102.554 60.8305 98.9678 60.8305ZM128.653 56.1818C128.653 53.5255 128.653 50.8691 128.653 48.2127C128.653 47.0838 128.321 46.7517 127.192 46.7517C125.598 46.7517 124.004 46.7517 122.41 46.7517C121.148 46.7517 120.816 47.0838 120.816 48.412C120.816 53.5919 120.816 58.7054 120.816 63.8853C120.816 65.1471 121.082 65.5455 122.344 65.5455C123.938 65.6119 125.531 65.5455 127.192 65.5455C128.52 65.4791 128.653 65.3463 128.653 63.9517C128.653 61.2953 128.653 58.7054 128.653 56.1818Z" fill="#9AA1B8" fill-opacity="0.4"/>
<path d="M25.2535 90.781C26.1833 90.7146 26.9802 91.0466 27.7107 91.5779C29.7694 93.0389 31.7616 94.5663 33.8203 95.9609C34.5508 96.4258 35.3477 96.8242 36.1446 97.1563C37.9377 98.0196 38.4025 99.2813 37.5392 101.074C36.6095 103 35.3477 104.66 33.9531 106.254C33.3554 106.985 32.5585 107.184 31.6288 106.719C30.8319 106.321 30.035 105.856 29.2381 105.391C26.9138 104.063 24.5894 102.735 22.3315 101.274C21.5346 100.742 20.8041 100.078 20.2064 99.3478C19.0775 98.0196 19.0775 96.4258 20.0072 94.9648C20.6713 93.9686 21.4018 93.0389 22.1323 92.1092C22.9292 91.1794 23.9253 90.5818 25.2535 90.781Z" fill="#9AA1B8" fill-opacity="0.4"/>
<path d="M51.9502 112.165C49.6259 112.098 47.368 111.899 45.1765 111.169C44.3132 110.903 43.3835 110.903 42.4537 110.77C40.063 110.505 38.8012 108.977 39.0005 106.586C39.1997 104.528 39.9302 102.735 40.7935 100.942C41.2584 99.9455 42.3209 99.4142 43.5163 99.6799C44.5124 99.8791 45.5086 100.344 46.5047 100.543C48.3641 100.875 50.29 100.942 52.2159 101.274C53.4112 101.473 54.5402 101.805 55.6692 102.137C56.2668 102.336 56.6653 102.868 56.7317 103.465C56.7981 104.063 56.7981 104.727 56.7981 105.325C56.7981 106.786 56.7317 108.18 56.7317 109.641C56.7317 111.301 55.8684 112.165 54.2082 112.165C53.4777 112.165 52.7471 112.165 51.9502 112.165Z" fill="#9AA1B8" fill-opacity="0.4"/>
<path d="M18.4797 15.8718C18.9446 16.071 19.8079 16.2038 20.5384 16.6687C21.6674 17.3992 22.7963 18.1961 23.7924 19.1258C24.9878 20.2548 25.1206 21.8486 24.1909 23.1768C23.1948 24.5714 22.0658 25.8332 21.0033 27.1613C19.6751 28.8216 18.2805 30.4818 16.9523 32.2084C16.0226 33.4038 14.3624 33.8023 13.1006 32.9389C11.706 32.0092 10.3778 31.0795 9.04962 30.0169C7.32299 28.6888 7.32299 27.2278 8.65117 25.5011C10.1786 23.6417 11.5068 21.583 13.0342 19.7235C13.8975 18.661 14.8272 17.6648 15.7569 16.6687C16.3546 16.1374 17.1515 15.8054 18.4797 15.8718Z" fill="#9AA1B8" fill-opacity="0.4"/>
<path d="M54.4071 -0.000194153C55.8016 -0.00019397 57.2627 -0.000193778 58.6572 -0.000193595C60.6495 -0.000193334 61.7785 1.12877 61.7785 3.12104C61.7785 4.38282 61.8449 5.71099 61.7785 6.97276C61.7121 9.03145 60.4503 10.2268 58.3916 10.2932C56.0009 10.3596 53.5437 10.4924 51.153 10.6253C50.4225 10.6917 49.692 10.8245 48.9615 10.9573C46.3716 11.4222 44.6449 10.1604 44.3793 7.50404C44.2465 6.30867 44.1801 5.0469 44.1136 3.85153C44.0472 2.32413 44.5785 1.46081 45.9731 1.06235C47.3013 0.663899 48.6959 0.398265 50.0905 0.265447C51.5515 0.132629 53.0125 0.265448 54.4735 0.265448C54.4071 0.13263 54.4071 0.066215 54.4071 -0.000194153Z" fill="#9AA1B8" fill-opacity="0.4"/>
<path d="M60.5166 105.524C60.583 104.993 60.583 104.462 60.6494 103.93C60.8486 102.735 61.712 102.004 63.0402 101.805C66.2278 101.274 69.4154 100.477 72.4702 99.3481C72.8023 99.2153 73.2007 99.1489 73.5328 99.016C75.0602 98.684 76.2556 99.1489 76.9197 100.543C77.5837 101.938 78.115 103.399 78.5799 104.86C78.9783 106.188 78.3807 107.384 77.1189 108.048C74.9274 109.243 72.4702 109.907 70.0795 110.505C68.2201 110.903 66.2942 111.235 64.4347 111.567C62.9073 111.833 62.044 111.235 61.5127 109.841C61.2471 109.11 61.0479 108.38 60.8486 107.649C60.7158 106.985 60.6494 106.255 60.5166 105.524Z" fill="#9AA1B8" fill-opacity="0.4"/>
<path d="M6.65898 34.267C8.58484 34.3998 10.3779 34.9975 12.0381 36.1264C12.503 36.4585 12.835 36.9234 13.2335 37.3882C13.6319 37.8531 13.6319 38.3844 13.3663 38.982C13.1007 39.5797 12.9678 40.3102 12.7686 40.9079C12.503 41.7048 12.1709 42.4353 11.8389 43.2322C11.7061 43.6307 11.5068 44.0955 11.5068 44.494C11.5068 46.287 10.9756 47.9473 10.4443 49.6739C10.3115 50.0724 10.1787 50.5372 9.97943 50.9357C9.64739 51.5998 9.11611 52.0646 8.38561 52.131C6.19411 52.1975 4.06902 51.8654 2.07675 50.8029C0.682156 50.0059 0.416521 48.6114 0.682158 47.1504C0.947794 45.6229 1.41266 44.1619 1.81111 42.7009C2.01034 41.904 2.20957 41.0407 2.40879 40.2438C2.67443 39.3805 2.94007 38.5836 3.2057 37.7867C3.40493 37.189 3.60416 36.5913 3.73698 35.9936C3.9362 35.1303 4.73312 34.5326 5.79566 34.3998C6.0613 34.267 6.32693 34.267 6.65898 34.267Z" fill="#9AA1B8" fill-opacity="0.4"/>
<path d="M5.72928 72.9834C3.33855 72.9834 2.87369 72.6514 2.34242 71.0575C1.14705 67.8035 0.615783 64.3502 0.15092 60.8969C0.0845106 60.2328 -0.0483081 59.6352 0.0181011 58.9711C0.0181013 57.7093 0.549373 56.9124 1.74474 56.5803C3.33856 56.1819 4.99879 55.7834 6.65901 55.5842C8.85051 55.385 9.97947 56.5803 10.1787 58.7718C10.3779 60.8305 10.8428 62.8228 11.1084 64.8151C11.3077 66.2761 11.5733 67.7371 11.6397 69.1981C11.7061 70.8583 11.042 71.8544 9.44819 72.2529C7.98719 72.7178 6.45978 72.8506 5.72928 72.9834Z" fill="#9AA1B8" fill-opacity="0.4"/>
<path d="M12.4365 75.5068C13.6318 75.5068 14.3623 76.1045 14.8936 76.9678C15.6241 78.0967 16.3546 79.2921 17.0851 80.4211C18.2141 82.1477 19.343 83.8079 20.472 85.4682C20.6712 85.7338 20.8704 85.9994 21.0032 86.3315C21.4681 87.2612 21.2689 88.2573 20.472 88.9214C19.2102 89.984 17.9484 90.9801 16.6866 91.9762C15.6241 92.7732 14.1631 92.6403 13.2334 91.6442C12.5029 90.8473 11.9052 89.984 11.3075 89.1207C9.71369 86.7299 8.25268 84.3392 6.72527 81.9485C6.59246 81.6828 6.45964 81.4172 6.32682 81.1516C5.86196 79.8898 5.99478 78.8272 7.12373 78.0967C8.65114 77.167 10.245 76.4365 11.8388 75.6396C12.038 75.5068 12.3036 75.5068 12.4365 75.5068Z" fill="#9AA1B8" fill-opacity="0.4"/>
<path d="M24.0584 12.1527C24.1248 10.6253 24.7888 9.69556 26.117 9.03146C27.9765 8.03533 29.7695 6.83997 31.6954 5.91024C32.9572 5.24615 34.2854 4.78128 35.6135 4.38283C37.4066 3.85155 38.6019 4.38282 39.4653 5.97664C40.0629 7.17201 40.5942 8.36737 41.0591 9.62914C41.4575 10.7581 41.1919 11.7542 40.1958 12.4847C39.5981 12.9496 38.934 13.2816 38.2699 13.6137C35.8792 14.8091 33.4884 16.0708 31.0977 17.2662C30.5 17.5318 29.9024 17.8639 29.3047 17.9967C28.1093 18.1959 27.1132 17.6647 26.3827 16.7349C25.7186 15.8052 25.1209 14.8091 24.5896 13.8129C24.324 13.2816 24.2576 12.684 24.0584 12.1527Z" fill="#9AA1B8" fill-opacity="0.4"/>
<path d="M91.198 88.4568C92.0613 88.4568 92.8582 88.7224 93.4559 89.4529C94.12 90.1834 94.8505 90.8475 95.5146 91.578C96.8428 93.039 96.7099 94.7657 95.3154 96.1603C92.7918 98.6838 90.0026 100.875 87.0142 102.801C85.2876 103.93 83.893 103.731 82.6312 102.137C81.7679 101.008 81.1038 99.8128 80.3733 98.6174C79.842 97.6213 79.9084 96.8244 80.7718 96.0274C81.3694 95.4298 81.9671 94.8985 82.6312 94.5C84.7563 93.039 86.7486 91.4452 88.608 89.6522C89.4049 88.8553 90.2019 88.4568 91.198 88.4568Z" fill="#9AA1B8" fill-opacity="0.4"/>
<path d="M69.4157 2.05847C71.0095 2.19128 72.7362 2.65615 74.3964 3.32024C76.7207 4.24996 78.9786 5.24611 81.2365 6.24224C82.3655 6.77352 82.8303 7.76965 82.4983 8.96501C82.0998 10.5588 81.5022 12.1527 80.506 13.4808C79.5099 14.809 78.3809 15.0747 76.8535 14.4106C74.1972 13.1488 71.408 12.1527 68.5524 11.3557C68.4196 11.2893 68.2867 11.2893 68.0875 11.2229C66.0952 10.5588 65.4312 9.42988 65.896 7.3712C66.1617 6.17583 66.4937 5.04688 66.8258 3.91792C67.1578 2.72256 68.0875 2.05847 69.4157 2.05847Z" fill="#9AA1B8" fill-opacity="0.4"/>
<path d="M100.097 21.9146C99.9639 22.7115 99.6983 23.3756 99.167 23.8404C98.1044 24.7702 97.0419 25.6999 95.9129 26.5632C94.5848 27.5593 93.3894 27.4265 92.3268 26.1648C90.2018 23.7076 87.7446 21.5161 85.2875 19.4574C83.5609 17.9964 84.0921 16.137 85.0883 15.008C85.6859 14.3439 86.2836 13.6134 86.8813 12.8829C88.0103 11.3555 89.272 11.1563 90.8659 12.2188C94.1863 14.4767 96.9755 17.3323 99.499 20.4536C99.6983 20.852 99.8311 21.3833 100.097 21.9146Z" fill="#9AA1B8" fill-opacity="0.4"/>
</svg>
