<svg width="110" height="198" viewBox="0 0 110 198" fill="none" xmlns="http://www.w3.org/2000/svg">
<path d="M49.5948 116.982C49.6735 116.588 49.7521 116.195 49.7521 115.802C49.7521 113.6 49.7521 111.398 49.7521 109.196C49.7521 105.892 49.7521 102.511 49.7521 99.2075C49.7521 99.0502 49.7521 98.8929 49.7521 98.657C53.2126 98.657 56.6731 98.657 60.1335 98.657C60.1335 98.8929 60.1335 99.0502 60.1335 99.2862C60.1335 111.083 60.1335 122.959 60.1335 134.756C60.1335 135.07 60.2908 135.385 60.3695 135.621C60.6054 135.464 60.92 135.306 61.1559 135.149C64.5377 131.453 68.3128 128.228 72.8743 125.947C78.9301 122.88 85.3005 121.071 92.1428 121.071C97.4121 121.15 102.524 122.094 107.479 124.139C109.131 124.846 110.074 125.947 109.996 127.756C109.996 128.386 109.996 129.015 109.917 129.644C109.524 134.363 108.265 138.924 106.063 143.092C100.637 153.631 92.3787 160.945 81.1322 164.799C76.1775 166.529 71.0654 167.001 65.8747 166.687C64.4591 166.608 63.1221 166.372 61.7065 166.215C61.6278 166.215 61.6278 166.215 61.5492 166.215C60.5268 166.136 60.2122 166.372 60.1335 167.394C60.1335 167.63 60.1335 167.866 60.1335 168.102C60.1335 176.439 60.1335 184.697 60.1335 193.033C60.1335 193.584 60.1335 194.056 60.0549 194.606C59.7403 196.336 58.7965 197.28 56.9876 197.438C55.572 197.516 54.1563 197.516 52.7407 197.359C50.8532 197.202 49.9881 196.179 49.9094 194.292C49.8308 192.404 49.8308 190.517 49.8308 188.55C49.8308 185.876 49.9094 183.202 49.9094 180.607C49.9094 170.619 49.9094 160.709 49.9094 150.721C49.9094 150.171 49.9094 149.62 49.8308 149.07C49.7521 148.362 49.5948 148.283 48.887 148.362C48.2578 148.44 47.7073 148.519 47.1568 148.598C42.202 149.384 37.3259 149.07 32.5285 147.733C26.1581 146.002 20.3382 143.328 15.2261 139.003C10.7433 135.385 7.04686 131.138 4.37286 126.026C2.32804 122.094 0.833749 117.847 0.204574 113.364C-0.0313665 111.87 -0.0313656 110.375 0.0472813 108.881C0.125928 107.701 0.755103 106.758 1.85616 106.286C3.4291 105.578 5.00204 104.87 6.65362 104.398C10.8219 103.061 15.0688 102.511 19.3944 102.747C23.5627 102.904 27.6523 103.848 31.5847 105.263C35.8316 106.758 39.8426 108.724 43.4604 111.476C45.112 112.735 46.5276 114.15 47.9432 115.723C48.4151 116.195 48.887 116.588 49.3589 117.06C49.4375 116.982 49.5162 116.982 49.5948 116.982ZM42.0447 138.61C42.7526 138.531 43.4604 138.531 44.1682 138.452C45.2692 138.295 46.3703 138.059 47.4714 137.744C48.2578 137.509 48.4938 137.115 48.2578 136.329C47.7073 134.284 46.9995 132.239 45.9771 130.352C43.3031 125.318 39.6067 121.307 34.8879 118.161C30.0118 114.937 24.5065 113.443 18.6866 113.285C16.6418 113.207 14.597 113.521 12.6308 114.229C11.5297 114.622 11.2938 115.094 11.7657 116.195C12.0016 116.903 12.3948 117.532 12.6308 118.24C14.5183 123.038 17.3496 127.127 21.1247 130.588C27.1018 136.014 34.18 138.295 42.0447 138.61ZM68.5487 156.698C69.7284 156.62 70.9081 156.541 72.0878 156.384C75.9415 155.912 79.6379 154.732 83.0984 152.845C87.8959 150.171 91.7496 146.553 94.6595 141.913C96.1538 139.553 97.3335 137.037 98.2773 134.363C98.6705 133.183 98.4346 132.79 97.2549 132.475H97.1762C95.2887 131.925 93.3225 131.767 91.3563 131.767C86.7948 131.846 82.5479 132.79 78.4582 134.835C74.9191 136.643 71.9305 139.003 69.2566 141.913C66.7399 144.744 64.6164 147.811 63.358 151.35C62.9648 152.373 62.7289 153.474 62.4929 154.575C62.3356 155.204 62.5716 155.519 63.1221 155.676C64.931 156.148 66.6612 156.698 68.5487 156.698Z" fill="#D5D8E1" fill-opacity="0.4"/>
<path d="M60.4054 80.5076C60.3268 80.9008 60.2481 81.294 60.2481 81.6873C60.2481 83.8894 60.2481 86.0915 60.2481 88.2936C60.2481 91.5968 60.2481 94.9786 60.2481 98.2818C60.2481 98.439 60.2481 98.5963 60.2481 98.8323C56.7877 98.8323 53.3272 98.8323 49.8667 98.8323C49.8667 98.5963 49.8667 98.439 49.8667 98.2031C49.8667 86.4061 49.8667 74.5304 49.8667 62.7334C49.8667 62.4188 49.7094 62.1042 49.6308 61.8682C49.3948 62.0255 49.0803 62.1828 48.8443 62.3401C45.4625 66.0365 41.6875 69.261 37.1259 71.5418C31.0701 74.609 24.6997 76.4179 17.8574 76.4179C12.5881 76.3393 7.47605 75.3955 2.52129 73.3507C0.869703 72.6429 -0.0740533 71.5418 0.00459035 69.7329C0.0045903 69.1038 0.00458261 68.4746 0.083234 67.8454C0.476468 63.1266 1.73482 58.5651 3.93694 54.3968C9.36357 43.8581 17.6215 36.5439 28.868 32.6902C33.8228 30.96 38.9348 30.4881 44.1255 30.8027C45.5411 30.8814 46.8781 31.1173 48.2938 31.2746C48.3724 31.2746 48.3724 31.2746 48.4511 31.2746C49.4735 31.3532 49.7881 31.1173 49.8667 30.0949C49.8667 29.8589 49.8667 29.623 49.8667 29.3871C49.8667 21.0505 49.8667 12.7926 49.8667 4.456C49.8667 3.90547 49.8667 3.43358 49.9454 2.88305C50.26 1.15282 51.2037 0.209058 53.0126 0.0517628C54.4282 -0.0268811 55.8439 -0.0268813 57.2595 0.130414C59.1471 0.287709 60.0122 1.31012 60.0908 3.19764C60.1695 5.08516 60.1695 6.97269 60.1695 8.93886C60.1695 11.6129 60.0908 14.2869 60.0908 16.8822C60.0908 26.8704 60.0908 36.7799 60.0908 46.768C60.0908 47.3186 60.0908 47.8691 60.1695 48.4196C60.2481 49.1274 60.4054 49.2061 61.1132 49.1274C61.7424 49.0488 62.2929 48.9701 62.8435 48.8915C67.7982 48.105 72.6743 48.4196 77.4718 49.7566C83.8422 51.4868 89.6621 54.1608 94.7741 58.4864C99.257 62.1042 102.953 66.3511 105.627 71.4632C107.672 75.3955 109.166 79.6424 109.796 84.1253C110.032 85.6196 110.032 87.1139 109.953 88.6082C109.874 89.7879 109.245 90.7316 108.144 91.2035C106.571 91.9113 104.998 92.6192 103.347 93.0911C99.1783 94.428 94.9314 94.9786 90.6058 94.7426C86.4375 94.5853 82.3479 93.6416 78.4156 92.2259C74.1686 90.7316 70.1576 88.7655 66.5399 86.0128C64.8883 84.7545 63.4726 83.3388 62.057 81.7659C61.5851 81.294 61.1132 80.9008 60.6413 80.4289C60.5627 80.5076 60.4841 80.5076 60.4054 80.5076ZM67.9555 58.8797C67.2477 58.9583 66.5399 58.9583 65.832 59.0369C64.731 59.1942 63.6299 59.4302 62.5289 59.7448C61.7424 59.9807 61.5065 60.3739 61.7424 61.1604C62.2929 63.2052 63.0008 65.2501 64.0232 67.1376C66.6972 72.171 70.3936 76.182 75.1124 79.3278C79.9885 82.5524 85.4938 84.0467 91.3136 84.204C93.3585 84.2826 95.4033 83.968 97.3695 83.2602C98.4705 82.867 98.7065 82.3951 98.2346 81.294C97.9986 80.5862 97.6054 79.957 97.3695 79.2492C95.4819 74.4517 92.6506 70.3621 88.8756 66.9016C82.8984 61.475 75.8202 59.1942 67.9555 58.8797ZM41.4515 40.7909C40.2718 40.8695 39.0921 40.9482 37.9124 41.1055C34.0587 41.5773 30.3623 42.757 26.9018 44.6446C22.1044 47.3186 18.2507 50.9363 15.3407 55.5765C13.8464 57.9359 12.6667 60.4526 11.723 63.1266C11.3297 64.3063 11.5657 64.6995 12.7454 65.0141L12.824 65.0141C14.7116 65.5646 16.6777 65.7219 18.6439 65.7219C23.2054 65.6433 27.4524 64.6995 31.542 62.6547C35.0811 60.8458 38.0697 58.4864 40.7437 55.5765C43.2604 52.7452 45.3839 49.678 46.6422 46.1389C47.0354 45.1164 47.2714 44.0154 47.5073 42.9143C47.6646 42.2852 47.4287 41.9706 46.8781 41.8133C45.0693 41.3414 43.339 40.7909 41.4515 40.7909Z" fill="#D5D8E1" fill-opacity="0.4"/>
</svg>
