<svg width="1440" height="703" viewBox="0 0 1440 703" fill="none" xmlns="http://www.w3.org/2000/svg">
<path d="M-172.705 373.35C-133.106 348.963 35.934 157.004 669.655 264.722C1303.38 372.441 1477.52 290.458 1553.31 110.135" stroke="#4E53AC" stroke-opacity="0.25" stroke-width="1.11256" stroke-miterlimit="10"/>
<path d="M-172.369 366.647C-134.654 343.409 38.8569 161.018 667.312 271.265C1295.77 381.512 1474.51 276.17 1546.75 104.401" stroke="#4E53AC" stroke-opacity="0.25" stroke-width="1.11256" stroke-miterlimit="10"/>
<path d="M-172 359.951C-136.174 337.875 41.7626 165.111 665.036 278.093C1288.31 391.075 1471.65 262.419 1540.27 99.235" stroke="#4E53AC" stroke-opacity="0.25" stroke-width="1.11256" stroke-miterlimit="10"/>
<path d="M-171.631 353.248C-137.687 332.333 44.6609 169.207 662.761 284.915C1280.86 400.623 1468.79 248.661 1533.79 94.0699" stroke="#4E53AC" stroke-opacity="0.25" stroke-width="1.11256" stroke-miterlimit="10"/>
<path d="M-171.263 346.541C-139.209 326.789 47.5656 173.291 660.484 291.726C1273.4 410.161 1465.92 234.892 1527.31 88.8865" stroke="#4E53AC" stroke-opacity="0.25" stroke-width="1.11256" stroke-miterlimit="10"/>
<path d="M-170.903 339.846C-140.729 321.255 50.464 177.394 658.192 298.556C1265.92 419.719 1463.04 221.144 1520.82 83.7305" stroke="#4E53AC" stroke-opacity="0.25" stroke-width="1.11256" stroke-miterlimit="10"/>
<path d="M-170.534 333.14C-142.25 315.712 53.37 181.485 655.917 305.375C1258.46 429.265 1460.18 207.383 1514.34 78.555" stroke="#4E53AC" stroke-opacity="0.25" stroke-width="1.11256" stroke-miterlimit="10"/>
<path d="M-170.166 326.437C-143.763 310.17 56.275 185.572 653.64 312.189C1251.01 438.806 1457.31 193.617 1507.86 73.382" stroke="#4E53AC" stroke-opacity="0.25" stroke-width="1.11256" stroke-miterlimit="10"/>
<path d="M-169.798 319.731C-145.285 304.626 59.1729 189.665 651.364 319.008C1243.56 448.351 1454.44 179.857 1501.4 68.2056" stroke="#4E53AC" stroke-opacity="0.25" stroke-width="1.11256" stroke-miterlimit="10"/>
<path d="M-169.429 313.034C-146.797 299.091 62.0787 193.759 649.081 325.837C1236.08 457.916 1451.57 166.107 1494.91 63.0484" stroke="#4E53AC" stroke-opacity="0.25" stroke-width="1.11256" stroke-miterlimit="10"/>
<path d="M-169.061 306.33C-148.318 293.549 64.9846 197.852 646.804 332.65C1228.62 467.448 1448.7 152.34 1488.43 57.8666" stroke="#4E53AC" stroke-opacity="0.25" stroke-width="1.11256" stroke-miterlimit="10"/>
<path d="M-168.701 299.626C-149.848 288.007 67.8731 201.939 644.52 339.471C1221.17 477.002 1445.83 138.581 1481.95 52.7007" stroke="#4E53AC" stroke-opacity="0.25" stroke-width="1.11256" stroke-miterlimit="10"/>
<path d="M-168.332 292.928C-151.36 282.471 70.7803 206.039 642.246 346.298C1213.71 486.557 1442.97 124.829 1475.47 47.5338" stroke="#4E53AC" stroke-opacity="0.25" stroke-width="1.11256" stroke-miterlimit="10"/>
<path d="M-167.963 286.222C-152.881 276.927 73.6854 210.124 639.961 353.11C1206.24 496.097 1440.09 111.07 1468.98 42.3593" stroke="#4E53AC" stroke-opacity="0.25" stroke-width="1.11256" stroke-miterlimit="10"/>
<path d="M-167.595 279.518C-154.394 271.385 76.5912 214.218 637.685 359.931C1198.78 505.645 1437.22 97.3119 1462.51 37.1858" stroke="#4E53AC" stroke-opacity="0.25" stroke-width="1.11256" stroke-miterlimit="10"/>
<path d="M-167.226 272.82C-155.914 265.849 79.489 218.311 635.41 366.758C1191.33 515.205 1434.36 83.5592 1456.03 32.0259" stroke="#4E53AC" stroke-opacity="0.25" stroke-width="1.11256" stroke-miterlimit="10"/>
<path d="M-166.858 266.116C-157.427 260.306 82.3949 222.405 633.134 373.579C1183.87 524.753 1431.49 69.794 1449.54 26.8536" stroke="#4E53AC" stroke-opacity="0.25" stroke-width="1.11256" stroke-miterlimit="10"/>
<path d="M-166.499 259.413C-158.957 254.766 85.2923 226.5 630.841 380.394C1176.39 534.289 1428.62 56.0356 1443.07 21.6804" stroke="#4E53AC" stroke-opacity="0.25" stroke-width="1.11256" stroke-miterlimit="10"/>
<path d="M-166.13 252.708C-160.47 249.222 88.1894 230.586 628.565 387.214C1168.94 543.842 1425.75 42.2767 1436.58 16.5144" stroke="#4E53AC" stroke-opacity="0.25" stroke-width="1.11256" stroke-miterlimit="10"/>
<path d="M-165.762 246.01C-161.991 243.686 91.0956 234.685 626.29 394.041C1161.48 553.396 1422.88 28.5161 1430.1 11.339" stroke="#4E53AC" stroke-opacity="0.25" stroke-width="1.11256" stroke-miterlimit="10"/>
<path d="M-165.393 239.307C-163.504 238.145 94.0013 238.773 624.014 400.855C1154.03 562.937 1420.01 14.7596 1423.63 6.17448" stroke="#4E53AC" stroke-opacity="0.25" stroke-width="1.11256" stroke-miterlimit="10"/>
<path d="M-165.025 232.601C-165.025 232.601 96.9066 242.865 621.729 407.675C1146.55 572.485 1417.14 0.999988 1417.14 0.999988" stroke="#4E53AC" stroke-opacity="0.25" stroke-width="1.11256" stroke-miterlimit="10"/>
<path d="M-160.93 244.677C-160.076 243.562 105.42 233.58 621.282 397.304C1137.14 561.027 1406.45 30.722 1419.41 25.6777" stroke="#4E53AC" stroke-opacity="0.25" stroke-width="1.11256" stroke-miterlimit="10"/>
<path d="M-156.835 256.763C-155.126 254.533 113.944 224.312 620.838 386.95C1127.73 549.588 1395.78 60.4452 1421.68 50.3576" stroke="#4E53AC" stroke-opacity="0.25" stroke-width="1.11256" stroke-miterlimit="10"/>
<path d="M-152.74 268.841C-150.176 265.496 122.467 215.036 620.383 376.581C1118.3 538.126 1385.09 90.1537 1423.95 75.0372" stroke="#4E53AC" stroke-opacity="0.25" stroke-width="1.11256" stroke-miterlimit="10"/>
<path d="M-148.645 280.916C-145.235 276.456 130.988 205.749 619.937 366.216C1108.89 526.683 1374.39 119.875 1426.21 99.7146" stroke="#4E53AC" stroke-opacity="0.25" stroke-width="1.11256" stroke-miterlimit="10"/>
<path d="M-144.551 292.995C-140.286 287.42 139.51 196.474 619.49 355.848C1099.47 515.221 1363.71 149.593 1428.48 124.388" stroke="#4E53AC" stroke-opacity="0.25" stroke-width="1.11256" stroke-miterlimit="10"/>
<path d="M-140.448 305.071C-135.328 298.381 148.032 187.19 619.045 345.485C1090.06 503.781 1353.03 179.315 1430.75 149.066" stroke="#4E53AC" stroke-opacity="0.25" stroke-width="1.11256" stroke-miterlimit="10"/>
<path d="M-136.353 317.146C-130.379 309.341 156.554 177.911 618.598 335.121C1080.64 492.33 1342.34 209.028 1433.02 173.743" stroke="#4E53AC" stroke-opacity="0.25" stroke-width="1.11256" stroke-miterlimit="10"/>
<path d="M-132.258 329.224C-125.429 320.304 165.077 168.628 618.153 324.751C1071.23 480.875 1331.66 238.745 1435.28 198.416" stroke="#4E53AC" stroke-opacity="0.25" stroke-width="1.11256" stroke-miterlimit="10"/>
<path d="M-128.163 341.308C-120.479 331.273 173.6 159.358 617.706 314.388C1061.81 469.419 1320.97 268.467 1437.55 223.094" stroke="#4E53AC" stroke-opacity="0.25" stroke-width="1.11256" stroke-miterlimit="10"/>
<path d="M-124.068 353.385C-115.53 342.236 182.122 150.082 617.252 304.027C1052.38 457.972 1310.28 298.191 1439.81 247.775" stroke="#4E53AC" stroke-opacity="0.25" stroke-width="1.11256" stroke-miterlimit="10"/>
<path d="M-119.973 365.463C-110.58 353.199 190.644 140.798 616.806 293.658C1042.97 446.517 1299.6 327.899 1442.08 272.447" stroke="#4E53AC" stroke-opacity="0.25" stroke-width="1.11256" stroke-miterlimit="10"/>
<path d="M-115.87 377.538C-105.631 364.159 199.167 131.52 616.368 283.293C1033.57 435.066 1288.92 357.62 1444.36 297.131" stroke="#4E53AC" stroke-opacity="0.25" stroke-width="1.11256" stroke-miterlimit="10"/>
<path d="M-111.775 389.616C-100.681 375.122 207.689 122.236 615.914 272.924C1024.14 423.612 1278.22 387.337 1446.62 321.804" stroke="#4E53AC" stroke-opacity="0.25" stroke-width="1.11256" stroke-miterlimit="10"/>
<path d="M-107.681 401.695C-95.732 386.086 216.211 112.962 615.468 262.564C1014.72 412.166 1267.54 417.061 1448.89 346.485" stroke="#4E53AC" stroke-opacity="0.25" stroke-width="1.11256" stroke-miterlimit="10"/>
<path d="M-103.586 413.77C-90.7825 397.046 224.734 103.683 615.021 252.191C1005.31 400.7 1256.86 446.767 1451.16 371.153" stroke="#4E53AC" stroke-opacity="0.25" stroke-width="1.11256" stroke-miterlimit="10"/>
<path d="M-99.4908 425.848C-85.833 408.008 233.256 94.3987 614.567 241.83C995.879 389.262 1246.16 476.491 1453.42 395.834" stroke="#4E53AC" stroke-opacity="0.25" stroke-width="1.11256" stroke-miterlimit="10"/>
<path d="M-95.3952 437.933C-80.8827 418.979 241.771 85.131 614.121 231.468C986.472 377.805 1235.48 506.215 1455.69 420.513" stroke="#4E53AC" stroke-opacity="0.25" stroke-width="1.11256" stroke-miterlimit="10"/>
<path d="M-91.2917 450.008C-75.9245 429.939 250.301 75.8444 613.684 221.103C977.067 366.362 1224.81 535.935 1457.96 445.191" stroke="#4E53AC" stroke-opacity="0.25" stroke-width="1.11256" stroke-miterlimit="10"/>
<path d="M-87.1972 462.086C-70.9837 440.902 258.824 66.5684 613.229 210.735C967.635 354.901 1214.11 565.644 1460.22 469.864" stroke="#4E53AC" stroke-opacity="0.25" stroke-width="1.11256" stroke-miterlimit="10"/>
<path d="M-83.1031 474.163C-66.0349 451.864 267.346 57.292 612.783 200.373C958.22 343.453 1203.43 595.368 1462.49 494.543" stroke="#4E53AC" stroke-opacity="0.25" stroke-width="1.11256" stroke-miterlimit="10"/>
<path d="M-79.0086 486.239C-61.0858 462.826 275.867 48.0067 612.336 190.001C948.805 331.996 1192.74 625.082 1464.76 519.221" stroke="#4E53AC" stroke-opacity="0.25" stroke-width="1.11256" stroke-miterlimit="10"/>
</svg>
