<svg width="100" height="100" viewBox="0 0 100 100" fill="none" xmlns="http://www.w3.org/2000/svg">
<rect width="100" height="100" rx="50" fill="#515981" fill-opacity="0.5"/>
<g clip-path="url(#clip0)">
<path d="M65.2 24.35C67.35 24.35 69.5 24.35 71.6 24.35C73.65 24.35 74.6 25.4 74.6 27.35C74.6 31.55 74.6 35.7 74.6 39.9C74.6 41.9 73.55 42.9 71.55 42.9C67.35 42.9 63.2 42.9 59 42.9C57 42.9 56 41.8 56 39.85C55.95 35.75 56 31.7 56 27.6C56 25.3 57.1 24.25 59.4 24.3C61.3 24.4 63.25 24.35 65.2 24.35Z" fill="#F8C751"/>
<path d="M74.5999 66.2002C74.5999 68.1502 74.5999 70.1002 74.5999 72.0002C74.6499 74.2502 73.5999 75.4002 71.2499 75.4002C67.2999 75.4002 63.2999 75.4002 59.3499 75.4002C57.0999 75.4002 55.95 74.3502 55.95 72.0502C55.95 68.0502 55.95 64.1002 55.95 60.1002C55.95 57.8002 56.9999 56.7002 59.2999 56.7502C63.3999 56.8002 67.4499 56.7502 71.5499 56.7502C73.5499 56.7502 74.5999 57.7502 74.5999 59.7502C74.5999 61.9502 74.5999 64.1002 74.5999 66.2002Z" fill="#F8C751"/>
<path d="M44.4 34.7001C44.4 31.1001 44.5 27.5501 44.35 23.9501C44.25 21.8501 45.55 22.0001 46.9 21.9501C48.3 21.9001 49.3 22.1001 49.1 23.9001C48.95 25.1001 49.15 26.3501 49.05 27.6001C48.85 30.0001 48.95 31.9001 52.25 31.3501C53.8 31.1001 53.7 32.3501 53.75 33.4001C53.75 34.6501 53.85 36.1501 52 35.9001C49.1 35.5501 49 37.1501 49.05 39.3501C49.15 46.5001 49.15 53.6501 49.05 60.8501C49.05 62.7501 49.15 64.1501 51.6 63.7501C53.4 63.4501 53.8 64.4501 53.8 66.0501C53.85 67.8501 53.1 68.5001 51.45 68.2501C49.55 68.0001 48.85 68.7501 49.05 70.6501C49.2 72.0501 49 73.5001 49.1 74.9501C49.2 76.7501 48.95 77.8001 46.7 77.7501C44.4 77.7001 44.35 76.5001 44.35 74.8001C44.4 68.2501 44.3 61.7001 44.4 55.1501C44.45 53.0501 44.1 51.7501 41.6 52.1501C39.7 52.4501 39.8 51.1501 39.8 49.8501C39.8 48.4501 39.75 47.0501 41.8 47.3501C44.1 47.7001 44.5 46.4501 44.4 44.5001C44.3 41.2501 44.4 38.0001 44.4 34.7001Z" fill="#CFCFCF"/>
<path d="M37.45 49.8C37.45 51.95 37.45 54.1 37.45 56.25C37.45 58.15 36.5 59.1 34.6 59.1C30.3 59.1 26 59.1 21.75 59.1C19.85 59.1 19 58.1 19 56.2C19 52 19 47.8 19 43.6C19 41.6 19.95 40.55 22 40.55C26.2 40.55 30.4 40.55 34.55 40.55C36.6 40.55 37.5 41.65 37.45 43.65C37.45 45.7 37.45 47.75 37.45 49.8Z" fill="#F8C751"/>
</g>
<defs>
<clipPath id="clip0">
<rect width="55.6" height="55.8" fill="white" transform="translate(19 22)"/>
</clipPath>
</defs>
</svg>
