<svg width="1440" height="1082" viewBox="0 0 1440 1082" fill="none" xmlns="http://www.w3.org/2000/svg">
<path d="M-134.462 213.431C-89.1631 202.907 132.155 74.6835 698.702 378.377C1265.25 682.071 1456.43 659.738 1585.63 512.884" stroke="#F8C751" stroke-opacity="0.1" stroke-width="1.11256" stroke-miterlimit="10"/>
<path d="M-132.012 207.183C-88.8642 197.148 133.649 79.4181 694.399 383.834C1255.15 688.251 1458.12 645.235 1581.24 505.361" stroke="#F8C751" stroke-opacity="0.1" stroke-width="1.11256" stroke-miterlimit="10"/>
<path d="M-129.532 200.952C-88.5455 191.418 135.102 84.2237 690.07 389.585C1245.04 694.946 1459.78 631.287 1576.74 498.404" stroke="#F8C751" stroke-opacity="0.1" stroke-width="1.11256" stroke-miterlimit="10"/>
<path d="M-127.05 194.714C-88.2168 185.683 136.547 89.0284 685.743 395.328C1234.94 701.628 1461.44 617.333 1572.24 491.447" stroke="#F8C751" stroke-opacity="0.1" stroke-width="1.11256" stroke-miterlimit="10"/>
<path d="M-124.569 188.473C-87.896 179.943 138.002 93.8241 681.418 401.061C1224.83 708.298 1463.1 603.368 1567.75 484.472" stroke="#F8C751" stroke-opacity="0.1" stroke-width="1.11256" stroke-miterlimit="10"/>
<path d="M-122.097 182.241C-87.5774 174.213 139.445 98.6358 677.073 406.808C1214.7 714.981 1464.75 589.417 1563.23 477.518" stroke="#F8C751" stroke-opacity="0.1" stroke-width="1.11256" stroke-miterlimit="10"/>
<path d="M-119.615 176C-87.2564 168.473 140.898 103.439 672.747 412.549C1204.59 721.659 1466.41 575.46 1558.74 470.551" stroke="#F8C751" stroke-opacity="0.1" stroke-width="1.11256" stroke-miterlimit="10"/>
<path d="M-117.134 169.762C-86.9281 162.737 142.353 108.238 668.421 418.285C1194.49 728.332 1468.07 561.497 1554.24 463.586" stroke="#F8C751" stroke-opacity="0.1" stroke-width="1.11256" stroke-miterlimit="10"/>
<path d="M-114.652 163.521C-86.6069 156.998 143.798 113.04 664.094 424.026C1184.39 735.012 1469.72 547.539 1549.75 456.621" stroke="#F8C751" stroke-opacity="0.1" stroke-width="1.11256" stroke-miterlimit="10"/>
<path d="M-112.172 157.29C-86.2801 151.27 145.251 117.846 659.758 429.775C1174.26 741.704 1471.37 533.59 1545.25 449.669" stroke="#F8C751" stroke-opacity="0.1" stroke-width="1.11256" stroke-miterlimit="10"/>
<path d="M-109.69 151.051C-85.9597 145.531 146.704 122.65 655.432 435.509C1164.16 748.368 1473.04 519.626 1540.75 442.696" stroke="#F8C751" stroke-opacity="0.1" stroke-width="1.11256" stroke-miterlimit="10"/>
<path d="M-107.217 144.809C-85.647 139.79 148.143 127.444 651.097 441.249C1154.05 755.054 1474.69 505.668 1536.25 435.735" stroke="#F8C751" stroke-opacity="0.1" stroke-width="1.11256" stroke-miterlimit="10"/>
<path d="M-104.736 138.577C-85.3197 134.061 149.594 132.256 646.769 446.998C1143.94 761.741 1476.35 491.72 1531.75 428.777" stroke="#F8C751" stroke-opacity="0.1" stroke-width="1.11256" stroke-miterlimit="10"/>
<path d="M-102.254 132.336C-84.9984 128.321 151.05 137.052 642.436 452.73C1133.82 768.407 1478 477.761 1527.25 421.807" stroke="#F8C751" stroke-opacity="0.1" stroke-width="1.11256" stroke-miterlimit="10"/>
<path d="M-99.7729 126.098C-84.67 122.586 152.503 141.858 638.109 458.473C1123.71 775.088 1479.65 463.804 1522.75 414.842" stroke="#F8C751" stroke-opacity="0.1" stroke-width="1.11256" stroke-miterlimit="10"/>
<path d="M-97.2925 119.865C-84.3507 116.854 153.948 146.66 633.781 464.221C1113.61 781.783 1481.32 449.855 1518.25 407.891" stroke="#F8C751" stroke-opacity="0.1" stroke-width="1.11256" stroke-miterlimit="10"/>
<path d="M-94.8113 113.626C-84.0224 111.118 155.401 151.465 629.453 469.964C1103.51 788.463 1482.97 435.89 1513.75 400.924" stroke="#F8C751" stroke-opacity="0.1" stroke-width="1.11256" stroke-miterlimit="10"/>
<path d="M-92.3384 107.386C-83.7105 105.378 156.845 156.269 625.111 475.696C1093.38 795.123 1484.63 421.935 1509.25 393.959" stroke="#F8C751" stroke-opacity="0.1" stroke-width="1.11256" stroke-miterlimit="10"/>
<path d="M-89.8563 101.146C-83.3813 99.6414 158.292 161.065 620.785 481.438C1083.28 801.811 1486.28 407.977 1504.75 386.998" stroke="#F8C751" stroke-opacity="0.1" stroke-width="1.11256" stroke-miterlimit="10"/>
<path d="M-87.3764 94.9129C-83.0625 93.9092 159.743 165.876 616.456 487.186C1073.17 808.496 1487.94 394.02 1500.25 380.031" stroke="#F8C751" stroke-opacity="0.1" stroke-width="1.11256" stroke-miterlimit="10"/>
<path d="M-84.8949 88.6757C-82.7338 88.1747 161.198 170.675 612.131 492.923C1063.06 815.171 1489.6 380.065 1495.75 373.075" stroke="#F8C751" stroke-opacity="0.1" stroke-width="1.11256" stroke-miterlimit="10"/>
<path d="M-82.4134 82.4349C-82.4134 82.4349 162.651 175.479 607.795 498.662C1052.94 821.845 1491.25 366.106 1491.25 366.106" stroke="#F8C751" stroke-opacity="0.1" stroke-width="1.11256" stroke-miterlimit="10"/>
<path d="M-82.3721 95.1862C-81.2071 94.4009 173.676 169.384 610.671 488.687C1047.67 807.99 1471.66 390.885 1485.55 390.224" stroke="#F8C751" stroke-opacity="0.1" stroke-width="1.11256" stroke-miterlimit="10"/>
<path d="M-82.3335 107.947C-80.0036 106.376 184.704 163.309 613.542 478.729C1042.38 794.15 1452.09 415.668 1479.85 414.344" stroke="#F8C751" stroke-opacity="0.1" stroke-width="1.11256" stroke-miterlimit="10"/>
<path d="M-82.2926 120.7C-78.7978 118.344 195.735 157.226 616.41 468.755C1037.08 780.284 1432.51 440.435 1474.16 438.464" stroke="#F8C751" stroke-opacity="0.1" stroke-width="1.11256" stroke-miterlimit="10"/>
<path d="M-82.2516 133.45C-77.6 130.307 206.768 151.131 619.283 458.786C1031.8 766.441 1412.91 465.211 1468.45 462.579" stroke="#F8C751" stroke-opacity="0.1" stroke-width="1.11256" stroke-miterlimit="10"/>
<path d="M-82.2117 146.204C-76.3952 142.276 217.798 145.049 622.158 448.814C1026.52 752.58 1393.33 489.986 1462.75 486.693" stroke="#F8C751" stroke-opacity="0.1" stroke-width="1.11256" stroke-miterlimit="10"/>
<path d="M-82.1627 158.958C-75.1812 154.245 228.83 138.957 625.031 438.848C1021.23 738.739 1373.75 514.768 1457.06 510.812" stroke="#F8C751" stroke-opacity="0.1" stroke-width="1.11256" stroke-miterlimit="10"/>
<path d="M-82.1219 171.708C-73.9755 166.209 239.861 132.871 627.905 428.88C1015.95 724.889 1354.17 539.539 1451.36 534.929" stroke="#F8C751" stroke-opacity="0.1" stroke-width="1.11256" stroke-miterlimit="10"/>
<path d="M-82.0806 184.462C-72.7692 178.178 250.894 126.78 630.78 418.907C1010.67 711.034 1334.58 564.313 1445.66 559.04" stroke="#F8C751" stroke-opacity="0.1" stroke-width="1.11256" stroke-miterlimit="10"/>
<path d="M-82.0422 197.221C-71.5658 190.151 261.922 120.703 633.653 408.94C1005.38 697.178 1315 589.093 1439.96 583.158" stroke="#F8C751" stroke-opacity="0.1" stroke-width="1.11256" stroke-miterlimit="10"/>
<path d="M-82.0012 209.974C-70.36 202.119 272.953 114.619 636.519 398.973C1000.08 683.326 1295.41 613.874 1434.25 607.276" stroke="#F8C751" stroke-opacity="0.1" stroke-width="1.11256" stroke-miterlimit="10"/>
<path d="M-81.9605 222.727C-69.1543 214.087 283.985 108.528 639.394 389C994.803 669.472 1275.83 638.64 1428.56 631.389" stroke="#F8C751" stroke-opacity="0.1" stroke-width="1.11256" stroke-miterlimit="10"/>
<path d="M-81.9113 235.48C-67.9483 226.053 295.016 102.443 642.276 379.034C989.535 655.626 1256.26 663.422 1422.87 655.516" stroke="#F8C751" stroke-opacity="0.1" stroke-width="1.11256" stroke-miterlimit="10"/>
<path d="M-81.8707 248.233C-66.7428 238.02 306.048 96.3521 645.143 369.06C984.237 641.767 1236.66 688.193 1417.16 679.627" stroke="#F8C751" stroke-opacity="0.1" stroke-width="1.11256" stroke-miterlimit="10"/>
<path d="M-81.8311 260.987C-65.5382 249.989 317.078 90.2699 648.015 359.095C978.952 627.921 1217.09 712.978 1411.46 703.748" stroke="#F8C751" stroke-opacity="0.1" stroke-width="1.11256" stroke-miterlimit="10"/>
<path d="M-81.7895 273.737C-64.3317 261.954 328.11 84.1833 650.891 349.119C973.672 614.055 1197.5 737.741 1405.77 727.857" stroke="#F8C751" stroke-opacity="0.1" stroke-width="1.11256" stroke-miterlimit="10"/>
<path d="M-81.7488 286.49C-63.126 273.921 339.142 78.0921 653.756 339.152C968.371 600.212 1177.91 762.52 1400.06 751.975" stroke="#F8C751" stroke-opacity="0.1" stroke-width="1.11256" stroke-miterlimit="10"/>
<path d="M-81.7099 299.25C-61.9222 285.896 350.163 72.0143 656.63 329.186C963.097 586.358 1158.33 787.301 1394.36 776.095" stroke="#F8C751" stroke-opacity="0.1" stroke-width="1.11256" stroke-miterlimit="10"/>
<path d="M-81.6603 312.004C-60.7076 297.864 361.204 65.9234 659.512 319.221C957.82 572.518 1138.76 812.084 1388.67 800.213" stroke="#F8C751" stroke-opacity="0.1" stroke-width="1.11256" stroke-miterlimit="10"/>
<path d="M-81.6201 324.756C-59.5106 309.83 372.234 59.8396 662.378 309.246C952.523 558.652 1119.17 836.848 1382.96 824.324" stroke="#F8C751" stroke-opacity="0.1" stroke-width="1.11256" stroke-miterlimit="10"/>
<path d="M-81.58 337.509C-58.3056 321.797 383.264 53.7558 665.251 299.28C947.239 544.804 1099.58 861.629 1377.27 848.443" stroke="#F8C751" stroke-opacity="0.1" stroke-width="1.11256" stroke-miterlimit="10"/>
<path d="M-81.5393 350.26C-57.1 333.763 394.296 47.663 668.126 289.305C941.956 530.947 1080 886.401 1371.57 872.561" stroke="#F8C751" stroke-opacity="0.1" stroke-width="1.11256" stroke-miterlimit="10"/>
</svg>
