<svg width="1148" height="1065" viewBox="0 0 1148 1065" fill="none" xmlns="http://www.w3.org/2000/svg">
<path opacity="0.0144928" d="M1426.98 910.494C1433.12 911.907 1439.45 909.088 1442.51 903.58L1565.29 682.41C1567.09 679.153 1567.54 675.314 1566.54 671.728L1469.6 326.66C1468.81 323.839 1467.16 321.335 1464.88 319.492L1219.91 121.368C1215.78 118.028 1210.13 117.285 1205.28 119.446L1003 209.506C998.144 211.667 994.912 216.366 994.631 221.67L977.949 536.289C977.794 539.215 978.552 542.116 980.118 544.592L1171.69 847.523C1173.68 850.672 1176.84 852.907 1180.47 853.743L1426.98 910.494Z" stroke="url(#paint0_linear)" stroke-opacity="0.1" stroke-width="2"/>
<path opacity="0.0289855" d="M1388.92 919.631C1394.97 921.35 1401.42 918.873 1404.76 913.552L1538.33 700.841C1540.32 697.681 1540.97 693.866 1540.15 690.225L1462.29 343.701C1461.65 340.834 1460.13 338.239 1457.94 336.277L1225.39 127.711C1221.44 124.169 1215.84 123.136 1210.88 125.038L1005.38 203.924C1000.43 205.825 996.955 210.339 996.391 215.614L963.128 526.218C962.815 529.14 963.42 532.086 964.86 534.648L1138.87 844.264C1140.7 847.516 1143.74 849.914 1147.33 850.934L1388.92 919.631Z" stroke="url(#paint1_linear)" stroke-opacity="0.1" stroke-width="2"/>
<path opacity="0.0434783" d="M1350.84 927.544C1356.77 929.561 1363.33 927.432 1366.94 922.314L1510.77 718.579C1512.92 715.527 1513.78 711.745 1513.15 708.061L1454.25 361.123C1453.76 358.217 1452.37 355.538 1450.28 353.461L1230.56 135.203C1226.8 131.469 1221.27 130.151 1216.23 131.788L1008.11 199.41C1003.07 201.047 999.371 205.365 998.525 210.595L949.057 516.318C948.586 519.228 949.036 522.212 950.345 524.853L1106.62 840.153C1108.28 843.501 1111.2 846.055 1114.73 847.258L1350.84 927.544Z" stroke="url(#paint2_linear)" stroke-opacity="0.1" stroke-width="2"/>
<path opacity="0.057971" d="M1312.81 934.243C1318.61 936.551 1325.25 934.774 1329.12 929.871L1482.63 735.599C1484.95 732.663 1486.01 728.927 1485.58 725.21L1445.46 378.884C1445.12 375.947 1443.87 373.19 1441.88 371.002L1235.37 143.817C1231.81 139.902 1226.36 138.303 1221.25 139.672L1011.13 195.974C1006.02 197.344 1002.1 201.453 1000.97 206.623L935.721 506.628C935.092 509.517 935.386 512.53 936.56 515.244L1074.98 835.228C1076.47 838.663 1079.25 841.368 1082.73 842.751L1312.81 934.243Z" stroke="url(#paint3_linear)" stroke-opacity="0.1" stroke-width="2"/>
<path opacity="0.0724638" d="M1274.89 939.741C1280.55 942.334 1287.25 940.911 1291.37 936.237L1453.96 751.877C1456.44 749.066 1457.7 745.386 1457.47 741.645L1435.91 396.939C1435.73 393.979 1434.62 391.152 1432.73 388.858L1239.76 153.525C1236.4 149.439 1231.06 147.563 1225.89 148.661L1014.37 193.621C1009.2 194.719 1005.08 198.609 1003.68 203.704L923.104 497.184C922.318 500.044 922.453 503.078 923.488 505.858L1044 829.53C1045.31 833.043 1047.96 835.892 1051.36 837.451L1274.89 939.741Z" stroke="url(#paint4_linear)" stroke-opacity="0.1" stroke-width="2"/>
<path opacity="0.0869565" d="M1237.14 944.057C1242.65 946.925 1249.39 945.858 1253.75 941.427L1424.81 767.392C1427.44 764.715 1428.9 761.102 1428.86 757.348L1425.59 415.246C1425.56 412.271 1424.59 409.38 1422.82 406.987L1243.66 164.291C1240.53 160.046 1235.29 157.9 1230.08 158.726L1017.78 192.351C1012.57 193.176 1008.25 196.836 1006.58 201.841L911.187 488.022C910.246 490.845 910.22 493.892 911.112 496.731L1013.71 823.102C1014.84 826.683 1017.34 829.669 1020.67 831.401L1237.14 944.057Z" stroke="url(#paint5_linear)" stroke-opacity="0.1" stroke-width="2"/>
<path opacity="0.101449" d="M1199.64 947.212C1204.98 950.347 1211.74 949.636 1216.32 945.459L1395.22 782.126C1398 779.591 1399.65 776.055 1399.81 772.299L1414.48 433.761C1414.61 430.779 1413.79 427.833 1412.14 425.344L1247.04 176.082C1244.13 171.689 1239.02 169.279 1233.78 169.83L1021.29 192.163C1016.05 192.714 1011.56 196.134 1009.62 201.035L899.951 479.178C898.856 481.954 898.668 485.007 899.415 487.897L984.149 815.987C985.089 819.627 987.44 822.743 990.683 824.645L1199.64 947.212Z" stroke="url(#paint6_linear)" stroke-opacity="0.1" stroke-width="2"/>
<path opacity="0.115942" d="M1162.43 949.231C1167.59 952.622 1174.36 952.267 1179.14 948.355L1365.24 796.063C1368.15 793.678 1369.99 790.23 1370.35 786.482L1402.59 452.44C1402.87 449.459 1402.21 446.464 1400.68 443.886L1249.83 188.856C1247.15 184.328 1242.18 181.662 1236.92 181.937L1024.85 193.051C1019.6 193.327 1014.93 196.498 1012.74 201.282L889.374 470.683C888.127 473.406 887.777 476.454 888.374 479.389L955.347 808.231C956.099 811.921 958.291 815.158 961.438 817.225L1162.43 949.231Z" stroke="url(#paint7_linear)" stroke-opacity="0.1" stroke-width="2"/>
<path opacity="0.130435" d="M1125.59 950.14C1130.56 953.777 1137.31 953.777 1142.28 950.14L1334.9 809.19C1337.95 806.963 1339.98 803.612 1340.54 799.882L1389.9 471.239C1390.35 468.268 1389.84 465.231 1388.44 462.571L1251.98 202.574C1249.54 197.922 1244.72 195.008 1239.47 195.008H1028.4C1023.15 195.008 1018.33 197.922 1015.89 202.574L879.431 462.571C878.035 465.231 877.522 468.268 877.969 471.239L927.335 799.882C927.895 803.612 929.922 806.963 932.966 809.19L1125.59 950.14Z" stroke="url(#paint8_linear)" stroke-opacity="0.1" stroke-width="2"/>
<path opacity="0.144928" d="M1089.16 949.971C1093.93 953.843 1100.65 954.195 1105.79 950.843L1304.27 821.496C1307.44 819.433 1309.64 816.19 1310.4 812.49L1376.42 490.114C1377.03 487.161 1376.67 484.091 1375.41 481.354L1253.46 217.192C1251.26 212.429 1246.6 209.276 1241.37 209.001L1031.88 198.022C1026.64 197.748 1021.68 200.397 1018.99 204.904L870.099 454.872C868.556 457.462 867.882 460.477 868.175 463.478L900.139 790.989C900.506 794.748 902.362 798.204 905.294 800.586L1089.16 949.971Z" stroke="url(#paint9_linear)" stroke-opacity="0.1" stroke-width="2"/>
<path opacity="0.15942" d="M1053.21 948.758C1057.76 952.853 1064.43 953.554 1069.73 950.495L1273.38 832.973C1276.66 831.082 1279.04 827.956 1280 824.295L1362.16 509.022C1362.92 506.094 1362.72 502.999 1361.6 500.192L1254.21 232.663C1252.26 227.802 1247.78 224.418 1242.57 223.871L1035.23 202.078C1030.02 201.531 1024.93 203.909 1022.01 208.258L861.35 447.614C859.664 450.126 858.829 453.112 858.966 456.134L873.783 781.601C873.955 785.38 875.635 788.933 878.447 791.464L1053.21 948.758Z" stroke="url(#paint10_linear)" stroke-opacity="0.1" stroke-width="2"/>
<path opacity="0.173913" d="M1017.79 946.537C1022.11 950.843 1028.71 951.888 1034.15 949.129L1242.28 843.616C1245.66 841.902 1248.22 838.903 1249.36 835.292L1347.1 527.918C1348.02 525.025 1347.99 521.912 1347 519.041L1254.19 248.938C1252.49 243.992 1248.2 240.388 1243.04 239.57L1038.39 207.158C1033.23 206.34 1028.03 208.441 1024.89 212.62L853.158 440.825C851.332 443.25 850.336 446.199 850.317 449.235L848.287 771.768C848.263 775.557 849.762 779.198 852.447 781.872L1017.79 946.537Z" stroke="url(#paint11_linear)" stroke-opacity="0.1" stroke-width="2"/>
<path opacity="0.188406" d="M982.939 943.347C987.027 947.852 993.538 949.236 999.104 946.783L1211.02 853.422C1214.5 851.892 1217.21 849.029 1218.55 845.477L1331.26 546.76C1332.34 543.91 1332.47 540.788 1331.62 537.861L1253.37 265.968C1251.93 260.95 1247.84 257.138 1242.73 256.052L1041.32 213.242C1036.22 212.157 1030.93 213.975 1027.57 217.972L845.492 434.53C843.531 436.862 842.377 439.765 842.2 442.806L823.671 761.543C823.45 765.332 824.763 769.051 827.314 771.862L982.939 943.347Z" stroke="url(#paint12_linear)" stroke-opacity="0.1" stroke-width="2"/>
<path opacity="0.202899" d="M948.715 939.23C952.558 943.92 958.964 945.636 964.637 943.496L1179.65 862.391C1183.2 861.049 1186.07 858.33 1187.6 854.849L1314.65 565.506C1315.88 562.706 1316.17 559.584 1315.48 556.607L1251.71 283.701C1250.53 278.625 1246.64 274.614 1241.61 273.264L1043.97 220.306C1038.93 218.957 1033.56 220.489 1030 224.292L838.323 428.754C836.232 430.984 834.921 433.833 834.586 436.872L799.947 750.978C799.531 754.757 800.654 758.545 803.064 761.486L948.715 939.23Z" stroke="url(#paint13_linear)" stroke-opacity="0.1" stroke-width="2"/>
<path opacity="0.217391" d="M915.16 934.23C918.75 939.092 925.033 941.133 930.795 939.31L1148.2 870.524C1151.83 869.375 1154.84 866.81 1156.56 863.408L1297.28 584.114C1298.66 581.374 1299.12 578.258 1298.57 575.239L1249.19 302.084C1248.26 296.963 1244.59 292.764 1239.64 291.156L1046.27 228.325C1041.32 226.717 1035.89 227.959 1032.13 231.558L831.62 423.518C829.404 425.64 827.938 428.425 827.444 431.454L777.13 740.125C776.517 743.884 777.447 747.732 779.709 750.795L915.16 934.23Z" stroke="url(#paint14_linear)" stroke-opacity="0.1" stroke-width="2"/>
<path opacity="0.231884" d="M882.317 928.393C885.646 933.412 891.79 935.771 897.622 934.268L1116.72 877.827C1120.42 876.875 1123.57 874.471 1125.46 871.159L1279.16 602.543C1280.69 599.87 1281.31 596.771 1280.91 593.716L1245.76 321.062C1245.09 315.909 1241.66 311.535 1236.81 309.673L1048.19 237.27C1043.34 235.408 1037.86 236.358 1033.92 239.743L825.351 418.842C823.014 420.849 821.397 423.564 820.745 426.573L755.226 729.038C754.418 732.767 755.152 736.664 757.261 739.843L882.317 928.393Z" stroke="url(#paint15_linear)" stroke-opacity="0.1" stroke-width="2"/>
<path opacity="0.246377" d="M850.224 921.767C853.285 926.93 859.274 929.596 865.159 928.416L1085.26 884.306C1089.01 883.555 1092.29 881.319 1094.37 878.107L1260.31 620.754C1261.98 618.156 1262.76 615.08 1262.52 611.998L1241.41 340.578C1241.01 335.407 1237.81 330.871 1233.07 328.761L1049.68 247.11C1044.94 245 1039.42 245.655 1035.31 248.817L819.482 414.746C817.031 416.63 815.266 419.266 814.456 422.249L734.242 717.769C733.24 721.458 733.776 725.394 735.725 728.682L850.224 921.767Z" stroke="url(#paint16_linear)" stroke-opacity="0.1" stroke-width="2"/>
<path opacity="0.26087" d="M818.917 914.402C821.705 919.694 827.522 922.658 833.442 921.803L1053.87 889.972C1057.66 889.425 1061.06 887.364 1063.3 884.261L1240.73 638.709C1242.55 636.193 1243.49 633.15 1243.41 630.048L1236.12 360.577C1235.98 355.401 1233.02 350.716 1228.41 348.365L1050.68 257.812C1046.07 255.461 1040.54 255.821 1036.27 258.75L813.981 411.245C811.422 413 809.512 415.549 808.545 418.498L714.18 706.373C712.987 710.011 713.321 713.977 715.106 717.364L818.917 914.402Z" stroke="url(#paint17_linear)" stroke-opacity="0.1" stroke-width="2"/>
<path opacity="0.275362" d="M788.429 906.348C790.938 911.755 796.569 915.006 802.506 914.476L1022.57 894.834C1026.39 894.493 1029.91 892.615 1032.32 889.629L1220.46 656.368C1222.42 653.943 1223.52 650.941 1223.59 647.826L1229.86 381C1229.98 375.832 1227.27 371.011 1222.8 368.427L1051.17 269.34C1046.7 266.755 1041.17 266.82 1036.75 269.509L808.811 408.353C806.151 409.974 804.101 412.428 802.979 415.334L695.039 694.9C693.658 698.478 693.79 702.464 695.404 705.942L788.429 906.348Z" stroke="url(#paint18_linear)" stroke-opacity="0.1" stroke-width="2"/>
<path opacity="0.289855" d="M758.789 897.66C761.016 903.165 766.446 906.692 772.382 906.487L991.427 898.908C995.267 898.775 998.887 897.085 1001.45 894.226L1199.51 673.697C1201.6 671.37 1202.86 668.416 1203.09 665.297L1222.63 401.789C1223.01 396.643 1220.56 391.699 1216.23 388.889L1051.11 281.656C1046.78 278.846 1041.27 278.617 1036.72 281.058L803.941 406.084C801.185 407.564 798.999 409.916 797.723 412.771L676.818 683.405C675.25 686.912 675.179 690.907 676.619 694.469L758.789 897.66Z" stroke="url(#paint19_linear)" stroke-opacity="0.1" stroke-width="2"/>
<path opacity="0.304348" d="M730.025 888.39C731.965 893.98 737.182 897.77 743.097 897.888L960.466 902.209C964.314 902.285 968.027 900.789 970.747 898.066L1177.91 690.661C1180.13 688.439 1181.55 685.542 1181.94 682.427L1214.41 422.886C1215.05 417.776 1212.86 412.723 1208.69 409.696L1050.45 294.723C1046.28 291.697 1040.8 291.175 1036.14 293.362L799.332 404.449C796.49 405.782 794.172 408.024 792.745 410.821L659.508 671.938C657.759 675.366 657.483 679.36 658.745 682.996L730.025 888.39Z" stroke="url(#paint20_linear)" stroke-opacity="0.1" stroke-width="2"/>
<path opacity="0.318841" d="M702.159 878.594C703.809 884.254 708.799 888.294 714.678 888.732L929.729 904.755C933.574 905.042 937.37 903.745 940.235 901.165L1155.68 707.225C1158.02 705.116 1159.59 702.284 1160.14 699.18L1205.19 444.232C1206.09 439.171 1204.16 434.022 1200.17 430.788L1049.16 308.499C1045.16 305.265 1039.73 304.453 1034.96 306.381L794.951 403.454C792.029 404.636 789.585 406.761 788.009 409.492L643.102 660.55C641.174 663.89 640.694 667.872 641.774 671.574L702.159 878.594Z" stroke="url(#paint21_linear)" stroke-opacity="0.1" stroke-width="2"/>
<path opacity="0.333333" d="M675.21 868.328C676.569 874.041 681.32 878.318 687.144 879.073L899.254 906.566C903.085 907.063 906.953 905.97 909.957 903.541L1132.84 723.36C1135.31 721.37 1137.03 718.611 1137.74 715.525L1194.98 465.769C1196.12 460.769 1194.47 455.54 1190.66 452.107L1047.21 322.942C1043.39 319.509 1038.02 318.412 1033.17 320.074L790.762 403.109C787.767 404.134 785.204 406.136 783.482 408.792L627.586 649.293C625.484 652.535 624.802 656.495 625.696 660.253L675.21 868.328Z" stroke="url(#paint22_linear)" stroke-opacity="0.1" stroke-width="2"/>
<path opacity="0.347826" d="M649.195 857.647C650.263 863.399 654.762 867.899 660.514 868.966L869.078 907.665C872.884 908.371 876.812 907.485 879.947 905.215L1109.43 739.034C1112.01 737.169 1113.88 734.491 1114.75 731.433L1183.76 487.438C1185.15 482.512 1183.77 477.217 1180.15 473.597L1044.56 338.008C1040.94 334.388 1035.65 333.008 1030.72 334.402L786.729 403.416C783.67 404.281 780.992 406.152 779.128 408.727L612.946 638.215C610.676 641.349 609.791 645.278 610.497 649.083L649.195 857.647Z" stroke="url(#paint23_linear)" stroke-opacity="0.1" stroke-width="2"/>
<path opacity="0.362319" d="M624.127 846.609C624.902 852.384 629.141 857.092 634.803 858.466L839.235 908.073C843.003 908.988 846.982 908.314 850.239 906.209L1085.48 754.219C1088.16 752.486 1090.18 749.897 1091.2 746.873L1171.54 509.182C1173.18 504.341 1172.08 498.995 1168.66 495.198L1041.21 353.652C1037.79 349.855 1032.59 348.198 1027.6 349.319L782.815 404.379C779.701 405.08 776.915 406.814 774.912 409.299L599.165 627.363C596.731 630.382 595.645 634.269 596.161 638.112L624.127 846.609Z" stroke="url(#paint24_linear)" stroke-opacity="0.1" stroke-width="2"/>
<path opacity="0.376812" d="M600.016 835.271C600.499 841.054 604.467 845.954 610.023 847.629L809.759 907.818C813.479 908.939 817.496 908.479 820.866 906.547L1061.01 768.889C1063.79 767.294 1065.95 764.802 1067.12 761.82L1158.33 530.943C1160.21 526.201 1159.38 520.817 1156.17 516.854L1037.11 369.828C1033.9 365.865 1028.81 363.938 1023.78 364.785L778.987 405.999C775.825 406.532 772.938 408.123 770.8 410.512L586.222 616.786C583.631 619.681 582.347 623.515 582.67 627.386L600.016 835.271Z" stroke="url(#paint25_linear)" stroke-opacity="0.1" stroke-width="2"/>
<path opacity="0.391304" d="M576.868 823.688C577.06 829.465 580.749 834.542 586.183 836.509L780.68 906.925C784.34 908.25 788.384 908.007 791.86 906.253L1036.05 783.019C1038.93 781.568 1041.22 779.179 1042.55 776.247L1144.14 552.664C1146.25 548.032 1145.7 542.626 1142.71 538.51L1032.26 386.49C1029.27 382.373 1024.29 380.182 1019.24 380.752L775.207 408.275C772.007 408.636 769.027 410.079 766.758 412.365L574.095 606.526C571.354 609.289 569.873 613.061 570.002 616.951L576.868 823.688Z" stroke="url(#paint26_linear)" stroke-opacity="0.1" stroke-width="2"/>
<path opacity="0.405797" d="M554.685 811.919C554.589 817.673 557.991 822.912 563.287 825.164L752.028 905.422C755.617 906.948 759.677 906.924 763.248 905.354L1010.65 796.586C1013.61 795.285 1016.04 793.006 1017.52 790.132L1128.97 574.291C1131.3 569.78 1131.03 564.366 1128.27 560.108L1026.63 403.589C1023.86 399.331 1019.02 396.884 1013.95 397.177L771.442 411.204C768.213 411.39 765.145 412.679 762.752 414.855L562.76 596.629C559.874 599.252 558.2 602.952 558.134 606.851L554.685 811.919Z" stroke="url(#paint27_linear)" stroke-opacity="0.1" stroke-width="2"/>
<path opacity="0.42029" d="M533.469 800.019C533.086 805.737 536.194 811.12 541.337 813.648L723.831 903.34C727.338 905.064 731.402 905.258 735.058 903.878L984.832 809.571C987.872 808.423 990.424 806.263 992.058 803.454L1112.85 595.769C1115.4 591.39 1115.41 585.983 1112.87 581.596L1020.2 421.08C1017.67 416.692 1012.98 413.996 1007.91 414.012L767.657 414.78C764.408 414.791 761.261 415.92 758.747 417.979L552.188 587.136C549.164 589.612 547.301 593.229 547.04 597.128L533.469 800.019Z" stroke="url(#paint28_linear)" stroke-opacity="0.1" stroke-width="2"/>
<path opacity="0.434783" d="M513.214 788.044C512.549 793.711 515.357 799.222 520.332 802.015L696.115 900.708C699.529 902.625 703.586 903.04 707.317 901.854L958.634 821.953C961.745 820.964 964.418 818.929 966.198 816.192L1095.79 617.045C1098.55 612.808 1098.83 607.422 1096.54 602.919L1012.97 438.911C1010.68 434.408 1006.15 431.472 1001.1 431.212L763.818 418.998C760.558 418.83 757.34 419.796 754.711 421.732L542.35 578.087C539.197 580.408 537.148 583.934 536.692 587.823L513.214 788.044Z" stroke="url(#paint29_linear)" stroke-opacity="0.1" stroke-width="2"/>
<path opacity="0.449275" d="M493.914 776.05C492.972 781.652 495.475 787.273 500.268 790.321L668.903 897.56C672.214 899.665 676.251 900.3 680.048 899.311L932.091 833.717C935.265 832.891 938.053 830.987 939.978 828.331L1077.81 638.067C1080.77 633.983 1081.33 628.633 1079.28 624.026L1004.93 457.036C1002.88 452.43 998.526 449.265 993.512 448.731L759.891 423.849C756.629 423.502 753.349 424.299 750.611 426.105L533.215 569.519C529.94 571.68 527.71 575.104 527.059 578.973L493.914 776.05Z" stroke="url(#paint30_linear)" stroke-opacity="0.1" stroke-width="2"/>
<path opacity="0.463768" d="M475.56 764.09C474.346 769.613 476.54 775.328 481.138 778.619L642.217 893.927C645.414 896.215 649.419 897.069 653.271 896.282L905.241 844.848C908.47 844.189 911.367 842.422 913.432 839.853L1058.94 658.786C1062.09 654.865 1062.92 649.564 1061.11 644.867L996.065 475.407C994.262 470.71 990.098 467.326 985.132 466.52L755.844 429.323C752.591 428.795 749.255 429.421 746.414 431.092L524.749 561.469C521.36 563.462 518.954 566.777 518.11 570.617L475.56 764.09L474.584 763.875L475.56 764.09Z" stroke="url(#paint31_linear)" stroke-opacity="0.1" stroke-width="2"/>
<path opacity="0.478261" d="M458.139 752.217C456.658 757.647 458.54 763.439 462.93 766.961L616.077 889.843C619.15 892.308 623.112 893.379 627.008 892.798L878.12 855.334C881.396 854.845 884.396 853.222 886.597 850.747L1039.2 679.154C1042.53 675.404 1043.63 670.166 1042.08 665.393L986.378 493.974C984.827 489.201 980.862 485.608 975.959 484.534L751.645 435.408C748.409 434.699 745.028 435.149 742.091 436.679L516.916 553.97C513.423 555.79 510.847 558.986 509.81 562.786L458.139 752.217Z" stroke="url(#paint32_linear)" stroke-opacity="0.1" stroke-width="2"/>
<path opacity="0.492754" d="M441.635 740.484C439.893 745.808 441.461 751.659 445.631 755.399L590.501 885.342C593.439 887.978 597.347 889.265 601.277 888.891L850.767 865.164C854.08 864.849 857.176 863.375 859.509 861.001L1018.62 699.124C1022.12 695.554 1023.48 690.394 1022.19 685.558L975.868 512.689C974.572 507.854 970.815 504.064 965.991 502.727L747.262 442.09C744.055 441.201 740.637 441.472 737.61 442.856L509.682 547.053C506.091 548.695 503.351 551.763 502.124 555.515L441.635 740.484Z" stroke="url(#paint33_linear)" stroke-opacity="0.1" stroke-width="2"/>
<path opacity="0.507246" d="M426.029 728.94C424.035 734.146 425.287 740.038 429.226 743.983L565.504 880.461C568.299 883.26 572.14 884.76 576.092 884.596L823.22 874.332C826.562 874.193 829.747 872.873 832.207 870.607L997.229 718.654C1000.9 715.271 1002.52 710.202 1001.48 705.317L964.535 531.507C963.497 526.622 959.959 522.648 955.227 521.052L742.668 449.356C739.498 448.287 736.052 448.377 732.942 449.609L503.005 540.749C499.328 542.206 496.429 545.139 495.014 548.833L426.029 728.94Z" stroke="url(#paint34_linear)" stroke-opacity="0.1" stroke-width="2"/>
<path opacity="0.521739" d="M411.299 717.635C409.06 722.71 409.997 728.626 413.695 732.762L541.1 875.233C543.742 878.188 547.504 879.897 551.469 879.944L795.515 882.83C798.878 882.869 802.144 881.709 804.728 879.557L975.069 737.7C978.896 734.513 980.763 729.547 979.984 724.627L952.385 550.378C951.606 545.459 948.296 541.313 943.671 539.464L737.831 457.188C734.709 455.94 731.244 455.846 728.058 456.923L496.848 535.082C493.092 536.351 490.042 539.14 488.442 542.767L411.299 717.635Z" stroke="url(#paint35_linear)" stroke-opacity="0.1" stroke-width="2"/>
<path opacity="0.536232" d="M397.423 706.615C394.947 711.548 395.57 717.471 399.017 721.782L517.299 869.695C519.78 872.797 523.453 874.713 527.418 874.972L767.693 890.654C771.066 890.875 774.406 889.879 777.108 887.847L952.171 756.224C956.141 753.239 958.253 748.389 957.734 743.449L939.425 569.258C938.906 564.318 935.832 560.013 931.328 557.919L732.724 465.569C729.659 464.144 726.185 463.864 722.932 464.781L491.168 530.077C487.344 531.154 484.149 533.791 482.368 537.342L397.423 706.615Z" stroke="url(#paint36_linear)" stroke-opacity="0.1" stroke-width="2"/>
<path opacity="0.550725" d="M384.374 695.926C381.67 700.706 381.98 706.619 385.168 711.09L494.112 863.883C496.424 867.125 499.996 869.241 503.949 869.712L739.791 897.805C743.165 898.207 746.571 897.38 749.385 895.475L928.573 774.188C932.676 771.412 935.025 766.69 934.766 761.743L925.665 588.101C925.406 583.155 922.576 578.704 918.206 576.372L727.322 474.479C724.324 472.879 720.85 472.413 717.536 473.165L485.923 525.756C482.041 526.638 478.71 529.116 476.75 532.582L384.374 695.926Z" stroke="url(#paint37_linear)" stroke-opacity="0.1" stroke-width="2"/>
<path opacity="0.565217" d="M372.122 685.61C369.201 690.226 369.201 696.112 372.122 700.727L471.546 857.832C473.68 861.204 477.14 863.517 481.071 864.2L711.846 904.282C715.213 904.866 718.677 904.212 721.598 902.439L904.316 791.558C908.539 788.995 911.118 784.414 911.118 779.474V606.863C911.118 601.923 908.539 597.342 904.316 594.779L721.598 483.898C718.677 482.126 715.213 481.471 711.846 482.056L481.071 522.138C477.14 522.82 473.68 525.133 471.546 528.505L372.122 685.61Z" stroke="url(#paint38_linear)" stroke-opacity="0.1" stroke-width="2"/>
<path opacity="0.57971" d="M360.637 675.71C357.508 680.152 357.202 685.994 359.849 690.738L449.606 851.581C451.555 855.073 454.892 857.576 458.79 858.47L683.898 910.087C687.247 910.855 690.761 910.377 693.783 908.742L879.441 808.303C883.773 805.959 886.572 801.529 886.83 796.611L895.798 625.502C896.055 620.583 893.734 615.885 889.671 613.101L715.529 493.805C712.694 491.864 709.25 491.021 705.839 491.434L476.568 519.239C472.598 519.72 469.018 521.861 466.715 525.13L360.637 675.71Z" stroke="url(#paint39_linear)" stroke-opacity="0.1" stroke-width="2"/>
<path opacity="0.594203" d="M349.885 666.264C346.559 670.522 345.951 676.303 348.319 681.16L428.294 845.163C430.051 848.766 433.255 851.453 437.108 852.557L655.983 915.227C659.305 916.178 662.86 915.88 665.976 914.388L853.989 824.393C858.418 822.272 861.43 818.005 861.943 813.121L879.721 643.975C880.234 639.091 878.176 634.291 874.284 631.296L709.091 504.177C706.353 502.07 702.938 501.039 699.491 501.278L472.369 517.073C468.37 517.351 464.678 519.313 462.21 522.472L349.885 666.264Z" stroke="url(#paint40_linear)" stroke-opacity="0.1" stroke-width="2"/>
<path opacity="0.608696" d="M339.832 657.307C336.319 661.373 335.416 667.079 337.5 672.031L407.612 838.616C409.171 842.318 412.231 845.183 416.028 846.494L628.138 919.707C631.423 920.841 635.01 920.725 638.215 919.381L828.006 839.801C832.521 837.907 835.735 833.812 836.5 828.977L862.908 662.243C863.674 657.407 861.883 652.519 858.174 649.324L702.264 514.99C699.632 512.721 696.256 511.502 692.781 511.565L468.429 515.65C464.412 515.723 460.617 517.502 457.99 520.542L339.832 657.307Z" stroke="url(#paint41_linear)" stroke-opacity="0.1" stroke-width="2"/>
<path opacity="0.623188" d="M330.44 648.876C326.753 652.741 325.559 658.355 327.356 663.386L387.559 831.974C388.913 835.766 391.82 838.8 395.55 840.315L600.398 923.537C603.637 924.852 607.248 924.921 610.535 923.73L801.536 854.504C806.125 852.841 809.53 848.928 810.545 844.154L845.381 680.267C846.395 675.493 844.875 670.533 841.36 667.147L695.028 526.218C692.511 523.794 689.184 522.388 685.69 522.272L464.703 514.98C460.678 514.847 456.789 516.437 454.009 519.35L330.44 648.876Z" stroke="url(#paint42_linear)" stroke-opacity="0.1" stroke-width="2"/>
<path opacity="0.637681" d="M321.672 641C317.821 644.657 316.346 650.165 317.852 655.257L368.132 825.272C369.276 829.142 372.02 832.338 375.672 834.055L572.801 926.727C575.983 928.223 579.609 928.479 582.97 927.445L774.626 868.481C779.276 867.051 782.864 863.329 784.123 858.63L827.161 698.01C828.42 693.31 827.174 688.294 823.862 684.73L687.365 537.838C684.971 535.262 681.703 533.671 678.199 533.375L461.145 515.067C457.124 514.728 453.149 516.124 450.223 518.903L321.672 641Z" stroke="url(#paint43_linear)" stroke-opacity="0.1" stroke-width="2"/>
<path opacity="0.652174" d="M313.487 633.71C309.485 637.152 307.736 642.538 308.949 647.675L349.326 818.545C350.256 822.482 352.828 825.831 356.391 827.746L545.38 929.29C548.497 930.965 552.128 931.409 555.557 930.536L747.324 881.715C752.023 880.519 755.781 876.997 757.28 872.385L808.275 715.437C809.774 710.825 808.804 705.768 805.705 702.038L679.258 549.822C676.997 547.101 673.798 545.326 670.292 544.849L457.711 515.915C453.703 515.37 449.653 516.567 446.587 519.205L313.487 633.71Z" stroke="url(#paint44_linear)" stroke-opacity="0.1" stroke-width="2"/>
<path opacity="0.666667" d="M305.844 627.031C301.703 630.253 299.688 635.503 300.609 640.668L331.133 811.828C331.845 815.819 334.237 819.313 337.7 821.421L518.168 931.242C521.209 933.092 524.837 933.727 528.327 933.019L719.676 894.192C724.413 893.23 728.33 889.916 730.061 885.405L788.75 732.516C790.482 728.005 789.788 722.921 786.912 719.037L670.692 562.145C668.573 559.284 665.452 557.328 661.953 556.668L454.355 517.525C450.371 516.774 446.255 517.769 443.056 520.26L305.844 627.031Z" stroke="url(#paint45_linear)" stroke-opacity="0.1" stroke-width="2"/>
<path opacity="0.681159" d="M298.7 620.988C294.434 623.983 292.163 629.084 292.791 634.259L313.546 805.151C314.036 809.185 316.239 812.814 319.593 815.11L491.199 932.597C494.155 934.621 497.77 935.447 501.312 934.907L691.732 905.897C696.493 905.171 700.557 902.072 702.516 897.673L768.614 749.214C770.572 744.815 770.156 739.721 767.51 735.697L661.653 574.777C659.684 571.783 656.651 569.649 653.169 568.807L451.032 519.893C447.082 518.937 442.911 519.727 439.585 522.063L298.7 620.988Z" stroke="url(#paint46_linear)" stroke-opacity="0.1" stroke-width="2"/>
<path opacity="0.695652" d="M292.013 615.6C287.633 618.365 285.117 623.304 285.454 628.472L296.555 798.548C296.82 802.613 298.827 806.366 302.06 808.845L464.504 933.374C467.366 935.568 470.958 936.585 474.546 936.217L663.539 916.823C668.313 916.333 672.512 913.455 674.69 909.179L747.897 765.503C750.075 761.228 749.936 756.139 747.526 751.989L652.129 587.691C650.318 584.572 647.384 582.263 643.926 581.237L447.698 523.014C443.792 521.856 439.577 522.438 436.132 524.613L292.013 615.6Z" stroke="url(#paint47_linear)" stroke-opacity="0.1" stroke-width="2"/>
<path opacity="0.710145" d="M285.738 610.887C281.258 613.417 278.507 618.182 278.555 623.327L280.147 792.05C280.185 796.133 281.988 800.001 285.091 802.656L438.113 933.594C440.871 935.955 444.432 937.163 448.057 936.969L635.147 926.964C639.921 926.709 644.242 924.058 646.633 919.917L726.631 781.356C729.021 777.216 729.157 772.148 726.991 767.886L642.111 600.859C640.466 597.622 637.639 595.143 634.216 593.934L444.309 526.883C440.458 525.523 436.207 525.896 432.651 527.904L285.738 610.887Z" stroke="url(#paint48_linear)" stroke-opacity="0.1" stroke-width="2"/>
<path opacity="0.724638" d="M279.83 606.863C275.262 609.155 272.289 613.735 272.052 618.84L264.308 785.686C264.118 789.775 265.711 793.746 268.674 796.571L412.054 933.277C414.7 935.8 418.219 937.199 421.874 937.182L606.602 936.317C611.365 936.294 615.796 933.875 618.39 929.881L704.848 796.747C707.442 792.753 707.85 787.721 705.933 783.361L631.588 614.251C630.117 610.905 627.407 608.259 624.027 606.868L440.821 531.487C437.035 529.929 432.76 530.09 429.102 531.926L279.83 606.863Z" stroke="url(#paint49_linear)" stroke-opacity="0.1" stroke-width="2"/>
<path opacity="0.73913" d="M274.244 603.541C269.603 605.594 266.418 609.977 265.9 615.025L249.024 779.486C248.605 783.569 249.981 787.632 252.795 790.619L386.357 932.447C388.88 935.127 392.349 936.716 396.025 936.878L577.955 944.881C582.695 945.09 587.223 942.907 590.012 939.069L682.583 811.655C685.372 807.817 686.049 802.836 684.386 798.393L620.555 627.84C619.265 624.393 616.681 621.585 613.353 620.014L437.194 536.816C433.483 535.064 429.194 535.01 425.441 536.67L274.244 603.541Z" stroke="url(#paint50_linear)" stroke-opacity="0.1" stroke-width="2"/>
<path opacity="0.753623" d="M268.934 600.931C264.233 602.742 260.85 606.919 260.056 611.895L234.278 773.478C233.63 777.541 234.784 781.684 237.439 784.827L361.046 931.128C363.438 933.959 366.846 935.737 370.537 936.08L549.253 952.66C553.958 953.096 558.57 951.153 561.544 947.481L659.87 826.058C662.844 822.386 663.786 817.471 662.38 812.959L609.005 641.596C607.903 638.057 605.455 635.093 602.188 633.342L433.385 542.854C429.759 540.91 425.466 540.643 421.627 542.122L268.934 600.931Z" stroke="url(#paint51_linear)" stroke-opacity="0.1" stroke-width="2"/>
<path opacity="0.768116" d="M263.856 599.04C259.107 600.608 255.54 604.57 254.477 609.457L220.053 767.687C219.176 771.718 220.103 775.93 222.591 779.219L336.146 929.344C338.398 932.322 341.737 934.287 345.433 934.812L520.543 959.658C525.202 960.319 529.884 958.619 533.033 955.122L636.744 839.938C639.893 836.441 641.095 831.607 639.951 827.043L596.936 655.489C596.028 651.868 593.724 648.753 590.528 646.824L429.355 549.584C425.824 547.453 421.538 546.971 417.622 548.265L263.856 599.04Z" stroke="url(#paint52_linear)" stroke-opacity="0.1" stroke-width="2"/>
<path opacity="0.782609" d="M258.963 597.871C254.179 599.196 250.442 602.934 249.116 607.718L206.327 762.14C205.223 766.125 205.919 770.393 208.232 773.82L311.68 927.123C313.784 930.241 317.043 932.391 320.737 933.099L491.871 965.884C496.473 966.766 501.213 965.31 504.526 961.997L613.242 853.28C616.555 849.967 618.011 845.228 617.13 840.626L584.344 669.491C583.637 665.798 581.486 662.538 578.369 660.434L425.066 556.987C421.638 554.674 417.37 553.978 413.385 555.082L258.963 597.871Z" stroke="url(#paint53_linear)" stroke-opacity="0.1" stroke-width="2"/>
<path opacity="0.797101" d="M254.21 597.426C249.405 598.509 245.511 602.016 243.931 606.681L193.083 756.859C191.753 760.785 192.215 765.097 194.344 768.654L287.669 924.493C289.616 927.744 292.787 930.077 296.47 930.969L463.284 971.35C467.818 972.448 472.601 971.238 476.068 968.116L589.401 866.07C592.867 862.949 594.571 858.319 593.953 853.695L571.23 683.574C570.728 679.818 568.739 676.421 565.71 674.145L420.479 565.041C417.165 562.551 412.925 561.642 408.881 562.554L254.21 597.426Z" stroke="url(#paint54_linear)" stroke-opacity="0.1" stroke-width="2"/>
<path opacity="0.811594" d="M249.553 597.703C244.74 598.546 240.703 601.814 238.878 606.347L180.297 751.867C178.745 755.723 178.969 760.066 180.908 763.741L264.133 921.483C265.915 924.86 268.988 927.373 272.652 928.449L434.825 976.069C439.281 977.377 444.094 976.413 447.703 973.491L565.257 878.298C568.865 875.376 570.808 870.868 570.455 866.238L557.593 697.708C557.303 693.9 555.484 690.372 552.551 687.927L415.56 573.724C412.368 571.063 408.166 569.941 404.072 570.658L249.553 597.703Z" stroke="url(#paint55_linear)" stroke-opacity="0.1" stroke-width="2"/>
<path opacity="0.826087" d="M244.946 598.698C240.137 599.302 235.973 602.327 233.913 606.714L167.948 747.185C166.177 750.956 166.16 755.317 167.902 759.102L241.09 918.121C242.699 921.618 245.665 924.307 249.302 925.567L406.539 980.056C410.905 981.569 415.736 980.852 419.475 978.135L540.847 889.954C544.586 887.237 546.76 882.865 546.671 878.244L543.438 711.865C543.363 708.016 541.722 704.365 538.894 701.754L410.274 583.009C407.213 580.182 403.06 578.85 398.926 579.369L244.946 598.698Z" stroke="url(#paint56_linear)" stroke-opacity="0.1" stroke-width="2"/>
<path opacity="0.84058" d="M240.347 600.405C235.555 600.772 231.278 603.55 228.993 607.778L156.012 742.831C154.026 746.506 153.767 750.872 155.306 754.756L218.555 914.44C219.984 918.047 222.833 920.909 226.435 922.353L378.466 983.331C382.734 985.043 387.569 984.571 391.426 982.066L516.209 901.031C520.066 898.526 522.463 894.302 522.635 889.706L528.766 726.017C528.912 722.139 527.456 718.373 524.742 715.6L404.589 592.869C401.667 589.884 397.574 588.344 393.408 588.664L240.347 600.405Z" stroke="url(#paint57_linear)" stroke-opacity="0.1" stroke-width="2"/>
<path opacity="0.855072" d="M235.712 602.813C230.949 602.948 226.575 605.474 224.077 609.531L144.464 738.824C142.268 742.39 141.767 746.747 143.096 750.719L196.543 910.47C197.784 914.18 200.508 917.21 204.066 918.838L350.648 985.915C354.808 987.819 359.634 987.591 363.596 985.303L491.38 911.527C495.343 909.239 497.953 905.174 498.384 900.619L513.585 740.136C513.954 736.241 512.692 732.368 510.099 729.438L398.475 603.276C395.7 600.139 391.676 598.395 387.489 598.513L235.712 602.813Z" stroke="url(#paint58_linear)" stroke-opacity="0.1" stroke-width="2"/>
<path opacity="0.869565" d="M231 605.912C226.279 605.818 221.822 608.089 219.123 611.964L133.281 735.179C130.881 738.625 130.136 742.96 131.251 747.009L175.066 906.242C176.112 910.047 178.702 913.24 182.208 915.051L323.123 987.831C327.167 989.919 331.97 989.933 336.026 987.866L466.397 921.438C470.453 919.372 473.266 915.478 473.953 910.979L497.901 754.197C498.497 750.297 497.435 746.325 494.973 743.242L391.904 614.199C389.283 610.918 385.338 608.972 381.14 608.889L231 605.912Z" stroke="url(#paint59_linear)" stroke-opacity="0.1" stroke-width="2"/>
<path opacity="0.884058" d="M226.171 609.686C221.502 609.369 216.979 611.382 214.09 615.064L122.436 731.911C119.838 735.224 118.851 739.523 119.746 743.637L154.134 901.79C154.979 905.68 157.426 909.032 160.871 911.024L295.928 989.104C299.848 991.37 304.616 991.621 308.752 989.78L441.298 930.766C445.434 928.925 448.437 925.213 449.376 920.784L481.722 768.172C482.547 764.278 481.693 760.217 479.368 756.987L384.848 625.606C382.389 622.188 378.534 620.045 374.333 619.759L226.171 609.686Z" stroke="url(#paint60_linear)" stroke-opacity="0.1" stroke-width="2"/>
<path opacity="0.898551" d="M221.184 614.119C216.579 613.583 212.005 615.339 208.941 618.819L111.904 729.032C109.114 732.2 107.887 736.45 108.558 740.618L133.756 897.147C134.394 901.111 136.688 904.617 140.066 906.789L269.099 989.762C272.886 992.197 277.606 992.683 281.809 991.069L416.116 939.514C420.319 937.9 423.503 934.381 424.687 930.038L465.058 782.036C466.115 778.162 465.474 774.021 463.295 770.648L377.283 637.464C374.993 633.918 371.237 631.581 367.043 631.093L221.184 614.119Z" stroke="url(#paint61_linear)" stroke-opacity="0.1" stroke-width="2"/>
<path opacity="0.913043" d="M216.002 619.192C211.473 618.444 206.862 619.942 203.637 623.21L101.658 726.553C98.6849 729.566 97.2186 733.753 97.6624 737.962L113.938 892.344C114.363 896.373 116.497 900.027 119.798 902.377L242.669 989.835C246.316 992.43 250.976 993.145 255.233 991.762L390.89 947.685C395.147 946.301 398.497 942.984 399.922 938.74L447.92 795.764C449.21 791.922 448.789 787.712 446.764 784.202L369.188 649.739C367.072 646.072 363.425 643.546 359.248 642.856L216.002 619.192Z" stroke="url(#paint62_linear)" stroke-opacity="0.1" stroke-width="2"/>
<path opacity="0.927536" d="M210.589 624.884C206.145 623.93 201.514 625.171 198.143 628.219L91.672 724.483C88.5236 727.33 86.8211 731.44 87.0348 735.679L94.6851 887.415C94.8911 891.5 96.8565 895.295 100.074 897.821L216.669 989.353C220.168 992.1 224.757 993.039 229.055 991.888L365.653 955.287C369.95 954.135 373.455 951.027 375.112 946.898L430.32 809.332C431.844 805.536 431.648 801.266 429.784 797.625L360.542 662.394C358.607 658.616 355.077 655.907 350.928 655.016L210.589 624.884Z" stroke="url(#paint63_linear)" stroke-opacity="0.1" stroke-width="2"/>
<path opacity="0.942029" d="M204.911 631.173C200.563 630.02 195.925 631.006 192.422 633.827L81.9185 722.832C78.6041 725.501 76.669 729.522 76.6504 733.778L76.0004 882.394C75.9823 886.523 77.771 890.454 80.8963 893.153L191.128 988.35C194.474 991.24 198.98 992.397 203.305 991.478L340.439 962.329C344.763 961.41 348.409 958.52 350.291 954.519L412.272 822.717C414.029 818.98 414.064 814.662 412.368 810.897L351.327 675.393C349.579 671.513 346.176 668.627 342.062 667.536L204.911 631.173Z" stroke="url(#paint64_linear)" stroke-opacity="0.1" stroke-width="2"/>
<path opacity="0.956522" d="M198.934 638.032C194.691 636.688 190.063 637.421 186.443 640.01L72.3708 721.602C68.9001 724.085 66.7366 728.002 66.4841 732.262L57.8841 877.313C57.6373 881.475 59.2413 885.535 62.267 888.405L166.072 986.859C169.259 989.882 173.671 991.251 178.01 990.564L315.281 968.822C319.62 968.135 323.392 965.469 325.489 961.609L393.79 835.897C395.78 832.232 396.052 827.876 394.53 823.993L341.528 688.699C339.972 684.726 336.704 681.669 332.636 680.38L198.934 638.032Z" stroke="url(#paint65_linear)" stroke-opacity="0.1" stroke-width="2"/>
<path opacity="0.971014" d="M192.627 645.436C188.498 643.909 183.894 644.393 180.173 646.745L63.0023 720.801C59.3856 723.087 56.9989 726.888 56.5115 731.139L40.3358 872.205C39.8559 876.39 41.2675 880.571 44.186 883.609L141.526 984.916C144.55 988.063 148.856 989.636 153.196 989.18L290.211 974.78C294.55 974.323 298.436 971.889 300.739 968.182L374.889 848.85C377.112 845.272 377.624 840.889 376.284 836.896L331.133 702.275C329.772 698.219 326.647 694.997 322.634 693.513L192.627 645.436Z" stroke="url(#paint66_linear)" stroke-opacity="0.1" stroke-width="2"/>
<path opacity="0.985507" d="M185.962 653.355C181.956 651.654 177.39 651.894 173.583 654.004L53.7859 720.43C50.0341 722.51 47.43 726.182 46.7075 730.411L23.352 867.104C22.6352 871.299 23.847 875.594 26.6509 878.796L117.513 982.559C120.367 985.819 124.559 987.589 128.886 987.362L265.26 980.215C269.587 979.988 273.571 977.79 276.069 974.249L355.587 861.557C358.041 858.08 358.797 853.682 357.645 849.584L320.129 716.081C318.969 711.951 315.995 708.572 312.047 706.895L185.962 653.355Z" stroke="url(#paint67_linear)" stroke-opacity="0.1" stroke-width="2"/>
<path d="M178.912 661.761C175.036 659.895 170.522 659.895 166.646 661.761L44.6955 720.49C40.8199 722.356 38.0052 725.885 37.048 730.079L6.92865 862.041C5.97147 866.234 6.97607 870.636 9.65796 873.999L94.0507 979.824C96.7326 983.187 100.8 985.146 105.102 985.146H240.457C244.758 985.146 248.826 983.187 251.508 979.824L335.9 873.999C338.582 870.636 339.587 866.235 338.63 862.041L308.51 730.079C307.553 725.885 304.738 722.356 300.863 720.49L178.912 661.761Z" stroke="url(#paint68_linear)" stroke-opacity="0.1" stroke-width="2"/>
<defs>
<linearGradient id="paint0_linear" x1="1437.86" y1="914.024" x2="1073.14" y2="94.8588" gradientUnits="userSpaceOnUse">
<stop stop-color="#9AA1B8"/>
<stop offset="1" stop-color="#F8C751"/>
</linearGradient>
<linearGradient id="paint1_linear" x1="1399.57" y1="923.698" x2="1081.06" y2="93.9562" gradientUnits="userSpaceOnUse">
<stop stop-color="#9AA1B8"/>
<stop offset="1" stop-color="#F8C751"/>
</linearGradient>
<linearGradient id="paint2_linear" x1="1361.23" y1="932.133" x2="1089.03" y2="94.3858" gradientUnits="userSpaceOnUse">
<stop stop-color="#9AA1B8"/>
<stop offset="1" stop-color="#F8C751"/>
</linearGradient>
<linearGradient id="paint3_linear" x1="1322.92" y1="939.338" x2="1096.98" y2="96.1377" gradientUnits="userSpaceOnUse">
<stop stop-color="#9AA1B8"/>
<stop offset="1" stop-color="#F8C751"/>
</linearGradient>
<linearGradient id="paint4_linear" x1="1284.69" y1="945.326" x2="1104.84" y2="99.1978" gradientUnits="userSpaceOnUse">
<stop stop-color="#9AA1B8"/>
<stop offset="1" stop-color="#F8C751"/>
</linearGradient>
<linearGradient id="paint5_linear" x1="1246.61" y1="950.113" x2="1112.53" y2="103.549" gradientUnits="userSpaceOnUse">
<stop stop-color="#9AA1B8"/>
<stop offset="1" stop-color="#F8C751"/>
</linearGradient>
<linearGradient id="paint6_linear" x1="1208.75" y1="953.72" x2="1119.99" y2="109.169" gradientUnits="userSpaceOnUse">
<stop stop-color="#9AA1B8"/>
<stop offset="1" stop-color="#F8C751"/>
</linearGradient>
<linearGradient id="paint7_linear" x1="1171.17" y1="956.168" x2="1127.14" y2="116.033" gradientUnits="userSpaceOnUse">
<stop stop-color="#9AA1B8"/>
<stop offset="1" stop-color="#F8C751"/>
</linearGradient>
<linearGradient id="paint8_linear" x1="1133.94" y1="957.487" x2="1133.94" y2="124.113" gradientUnits="userSpaceOnUse">
<stop stop-color="#9AA1B8"/>
<stop offset="1" stop-color="#F8C751"/>
</linearGradient>
<linearGradient id="paint9_linear" x1="1097.1" y1="957.705" x2="1140.3" y2="133.376" gradientUnits="userSpaceOnUse">
<stop stop-color="#9AA1B8"/>
<stop offset="1" stop-color="#F8C751"/>
</linearGradient>
<linearGradient id="paint10_linear" x1="1060.71" y1="956.854" x2="1146.17" y2="143.788" gradientUnits="userSpaceOnUse">
<stop stop-color="#9AA1B8"/>
<stop offset="1" stop-color="#F8C751"/>
</linearGradient>
<linearGradient id="paint11_linear" x1="1024.84" y1="954.972" x2="1151.49" y2="155.309" gradientUnits="userSpaceOnUse">
<stop stop-color="#9AA1B8"/>
<stop offset="1" stop-color="#F8C751"/>
</linearGradient>
<linearGradient id="paint12_linear" x1="989.527" y1="952.095" x2="1156.21" y2="167.898" gradientUnits="userSpaceOnUse">
<stop stop-color="#9AA1B8"/>
<stop offset="1" stop-color="#F8C751"/>
</linearGradient>
<linearGradient id="paint13_linear" x1="954.826" y1="948.266" x2="1160.28" y2="181.512" gradientUnits="userSpaceOnUse">
<stop stop-color="#9AA1B8"/>
<stop offset="1" stop-color="#F8C751"/>
</linearGradient>
<linearGradient id="paint14_linear" x1="920.782" y1="943.527" x2="1163.63" y2="196.103" gradientUnits="userSpaceOnUse">
<stop stop-color="#9AA1B8"/>
<stop offset="1" stop-color="#F8C751"/>
</linearGradient>
<linearGradient id="paint15_linear" x1="887.438" y1="937.924" x2="1166.24" y2="211.623" gradientUnits="userSpaceOnUse">
<stop stop-color="#9AA1B8"/>
<stop offset="1" stop-color="#F8C751"/>
</linearGradient>
<linearGradient id="paint16_linear" x1="854.836" y1="931.505" x2="1168.05" y2="228.021" gradientUnits="userSpaceOnUse">
<stop stop-color="#9AA1B8"/>
<stop offset="1" stop-color="#F8C751"/>
</linearGradient>
<linearGradient id="paint17_linear" x1="823.012" y1="924.319" x2="1169.02" y2="245.243" gradientUnits="userSpaceOnUse">
<stop stop-color="#9AA1B8"/>
<stop offset="1" stop-color="#F8C751"/>
</linearGradient>
<linearGradient id="paint18_linear" x1="792" y1="916.417" x2="1169.12" y2="263.234" gradientUnits="userSpaceOnUse">
<stop stop-color="#9AA1B8"/>
<stop offset="1" stop-color="#F8C751"/>
</linearGradient>
<linearGradient id="paint19_linear" x1="761.833" y1="907.852" x2="1168.31" y2="281.938" gradientUnits="userSpaceOnUse">
<stop stop-color="#9AA1B8"/>
<stop offset="1" stop-color="#F8C751"/>
</linearGradient>
<linearGradient id="paint20_linear" x1="732.537" y1="898.678" x2="1166.56" y2="301.298" gradientUnits="userSpaceOnUse">
<stop stop-color="#9AA1B8"/>
<stop offset="1" stop-color="#F8C751"/>
</linearGradient>
<linearGradient id="paint21_linear" x1="704.137" y1="888.949" x2="1163.85" y2="321.254" gradientUnits="userSpaceOnUse">
<stop stop-color="#9AA1B8"/>
<stop offset="1" stop-color="#F8C751"/>
</linearGradient>
<linearGradient id="paint22_linear" x1="676.655" y1="878.722" x2="1160.15" y2="341.745" gradientUnits="userSpaceOnUse">
<stop stop-color="#9AA1B8"/>
<stop offset="1" stop-color="#F8C751"/>
</linearGradient>
<linearGradient id="paint23_linear" x1="650.109" y1="868.053" x2="1155.45" y2="362.712" gradientUnits="userSpaceOnUse">
<stop stop-color="#9AA1B8"/>
<stop offset="1" stop-color="#F8C751"/>
</linearGradient>
<linearGradient id="paint24_linear" x1="624.512" y1="856.998" x2="1149.73" y2="384.093" gradientUnits="userSpaceOnUse">
<stop stop-color="#9AA1B8"/>
<stop offset="1" stop-color="#F8C751"/>
</linearGradient>
<linearGradient id="paint25_linear" x1="599.876" y1="845.615" x2="1142.97" y2="405.827" gradientUnits="userSpaceOnUse">
<stop stop-color="#9AA1B8"/>
<stop offset="1" stop-color="#F8C751"/>
</linearGradient>
<linearGradient id="paint26_linear" x1="576.209" y1="833.962" x2="1135.17" y2="427.851" gradientUnits="userSpaceOnUse">
<stop stop-color="#9AA1B8"/>
<stop offset="1" stop-color="#F8C751"/>
</linearGradient>
<linearGradient id="paint27_linear" x1="553.514" y1="822.095" x2="1126.33" y2="450.105" gradientUnits="userSpaceOnUse">
<stop stop-color="#9AA1B8"/>
<stop offset="1" stop-color="#F8C751"/>
</linearGradient>
<linearGradient id="paint28_linear" x1="531.794" y1="810.072" x2="1116.44" y2="472.528" gradientUnits="userSpaceOnUse">
<stop stop-color="#9AA1B8"/>
<stop offset="1" stop-color="#F8C751"/>
</linearGradient>
<linearGradient id="paint29_linear" x1="511.046" y1="797.948" x2="1105.5" y2="495.057" gradientUnits="userSpaceOnUse">
<stop stop-color="#9AA1B8"/>
<stop offset="1" stop-color="#F8C751"/>
</linearGradient>
<linearGradient id="paint30_linear" x1="491.264" y1="785.78" x2="1093.53" y2="517.635" gradientUnits="userSpaceOnUse">
<stop stop-color="#9AA1B8"/>
<stop offset="1" stop-color="#F8C751"/>
</linearGradient>
<linearGradient id="paint31_linear" x1="472.44" y1="773.623" x2="1080.52" y2="540.201" gradientUnits="userSpaceOnUse">
<stop stop-color="#9AA1B8"/>
<stop offset="1" stop-color="#F8C751"/>
</linearGradient>
<linearGradient id="paint32_linear" x1="454.562" y1="761.53" x2="1066.5" y2="562.698" gradientUnits="userSpaceOnUse">
<stop stop-color="#9AA1B8"/>
<stop offset="1" stop-color="#F8C751"/>
</linearGradient>
<linearGradient id="paint33_linear" x1="437.616" y1="749.554" x2="1051.48" y2="585.07" gradientUnits="userSpaceOnUse">
<stop stop-color="#9AA1B8"/>
<stop offset="1" stop-color="#F8C751"/>
</linearGradient>
<linearGradient id="paint34_linear" x1="421.585" y1="737.746" x2="1035.47" y2="607.26" gradientUnits="userSpaceOnUse">
<stop stop-color="#9AA1B8"/>
<stop offset="1" stop-color="#F8C751"/>
</linearGradient>
<linearGradient id="paint35_linear" x1="406.447" y1="726.157" x2="1018.51" y2="629.216" gradientUnits="userSpaceOnUse">
<stop stop-color="#9AA1B8"/>
<stop offset="1" stop-color="#F8C751"/>
</linearGradient>
<linearGradient id="paint36_linear" x1="392.18" y1="714.833" x2="1000.6" y2="650.885" gradientUnits="userSpaceOnUse">
<stop stop-color="#9AA1B8"/>
<stop offset="1" stop-color="#F8C751"/>
</linearGradient>
<linearGradient id="paint37_linear" x1="378.759" y1="703.823" x2="981.791" y2="672.219" gradientUnits="userSpaceOnUse">
<stop stop-color="#9AA1B8"/>
<stop offset="1" stop-color="#F8C751"/>
</linearGradient>
<linearGradient id="paint38_linear" x1="366.155" y1="693.169" x2="962.1" y2="693.169" gradientUnits="userSpaceOnUse">
<stop stop-color="#9AA1B8"/>
<stop offset="1" stop-color="#F8C751"/>
</linearGradient>
<linearGradient id="paint39_linear" x1="354.338" y1="682.914" x2="941.563" y2="713.69" gradientUnits="userSpaceOnUse">
<stop stop-color="#9AA1B8"/>
<stop offset="1" stop-color="#F8C751"/>
</linearGradient>
<linearGradient id="paint40_linear" x1="343.276" y1="673.1" x2="920.215" y2="733.738" gradientUnits="userSpaceOnUse">
<stop stop-color="#9AA1B8"/>
<stop offset="1" stop-color="#F8C751"/>
</linearGradient>
<linearGradient id="paint41_linear" x1="332.934" y1="663.761" x2="898.092" y2="753.274" gradientUnits="userSpaceOnUse">
<stop stop-color="#9AA1B8"/>
<stop offset="1" stop-color="#F8C751"/>
</linearGradient>
<linearGradient id="paint42_linear" x1="323.277" y1="654.936" x2="875.234" y2="772.258" gradientUnits="userSpaceOnUse">
<stop stop-color="#9AA1B8"/>
<stop offset="1" stop-color="#F8C751"/>
</linearGradient>
<linearGradient id="paint43_linear" x1="314.265" y1="646.656" x2="851.681" y2="790.656" gradientUnits="userSpaceOnUse">
<stop stop-color="#9AA1B8"/>
<stop offset="1" stop-color="#F8C751"/>
</linearGradient>
<linearGradient id="paint44_linear" x1="305.861" y1="638.952" x2="827.477" y2="808.435" gradientUnits="userSpaceOnUse">
<stop stop-color="#9AA1B8"/>
<stop offset="1" stop-color="#F8C751"/>
</linearGradient>
<linearGradient id="paint45_linear" x1="298.021" y1="631.852" x2="802.664" y2="825.566" gradientUnits="userSpaceOnUse">
<stop stop-color="#9AA1B8"/>
<stop offset="1" stop-color="#F8C751"/>
</linearGradient>
<linearGradient id="paint46_linear" x1="290.705" y1="625.379" x2="777.288" y2="842.02" gradientUnits="userSpaceOnUse">
<stop stop-color="#9AA1B8"/>
<stop offset="1" stop-color="#F8C751"/>
</linearGradient>
<linearGradient id="paint47_linear" x1="283.87" y1="619.558" x2="751.396" y2="857.775" gradientUnits="userSpaceOnUse">
<stop stop-color="#9AA1B8"/>
<stop offset="1" stop-color="#F8C751"/>
</linearGradient>
<linearGradient id="paint48_linear" x1="277.471" y1="614.408" x2="725.035" y2="872.809" gradientUnits="userSpaceOnUse">
<stop stop-color="#9AA1B8"/>
<stop offset="1" stop-color="#F8C751"/>
</linearGradient>
<linearGradient id="paint49_linear" x1="271.463" y1="609.944" x2="698.253" y2="887.104" gradientUnits="userSpaceOnUse">
<stop stop-color="#9AA1B8"/>
<stop offset="1" stop-color="#F8C751"/>
</linearGradient>
<linearGradient id="paint50_linear" x1="265.802" y1="606.181" x2="671.099" y2="900.646" gradientUnits="userSpaceOnUse">
<stop stop-color="#9AA1B8"/>
<stop offset="1" stop-color="#F8C751"/>
</linearGradient>
<linearGradient id="paint51_linear" x1="260.442" y1="603.131" x2="643.621" y2="913.423" gradientUnits="userSpaceOnUse">
<stop stop-color="#9AA1B8"/>
<stop offset="1" stop-color="#F8C751"/>
</linearGradient>
<linearGradient id="paint52_linear" x1="255.337" y1="600.8" x2="615.87" y2="925.426" gradientUnits="userSpaceOnUse">
<stop stop-color="#9AA1B8"/>
<stop offset="1" stop-color="#F8C751"/>
</linearGradient>
<linearGradient id="paint53_linear" x1="250.44" y1="599.195" x2="587.893" y2="936.648" gradientUnits="userSpaceOnUse">
<stop stop-color="#9AA1B8"/>
<stop offset="1" stop-color="#F8C751"/>
</linearGradient>
<linearGradient id="paint54_linear" x1="245.707" y1="598.318" x2="559.742" y2="947.088" gradientUnits="userSpaceOnUse">
<stop stop-color="#9AA1B8"/>
<stop offset="1" stop-color="#F8C751"/>
</linearGradient>
<linearGradient id="paint55_linear" x1="241.092" y1="598.169" x2="531.462" y2="956.746" gradientUnits="userSpaceOnUse">
<stop stop-color="#9AA1B8"/>
<stop offset="1" stop-color="#F8C751"/>
</linearGradient>
<linearGradient id="paint56_linear" x1="236.551" y1="598.744" x2="503.105" y2="965.624" gradientUnits="userSpaceOnUse">
<stop stop-color="#9AA1B8"/>
<stop offset="1" stop-color="#F8C751"/>
</linearGradient>
<linearGradient id="paint57_linear" x1="232.039" y1="600.039" x2="474.716" y2="973.729" gradientUnits="userSpaceOnUse">
<stop stop-color="#9AA1B8"/>
<stop offset="1" stop-color="#F8C751"/>
</linearGradient>
<linearGradient id="paint58_linear" x1="227.512" y1="602.045" x2="446.342" y2="981.07" gradientUnits="userSpaceOnUse">
<stop stop-color="#9AA1B8"/>
<stop offset="1" stop-color="#F8C751"/>
</linearGradient>
<linearGradient id="paint59_linear" x1="222.928" y1="604.752" x2="418.029" y2="987.658" gradientUnits="userSpaceOnUse">
<stop stop-color="#9AA1B8"/>
<stop offset="1" stop-color="#F8C751"/>
</linearGradient>
<linearGradient id="paint60_linear" x1="218.247" y1="608.145" x2="389.821" y2="993.507" gradientUnits="userSpaceOnUse">
<stop stop-color="#9AA1B8"/>
<stop offset="1" stop-color="#F8C751"/>
</linearGradient>
<linearGradient id="paint61_linear" x1="213.428" y1="612.21" x2="361.762" y2="998.635" gradientUnits="userSpaceOnUse">
<stop stop-color="#9AA1B8"/>
<stop offset="1" stop-color="#F8C751"/>
</linearGradient>
<linearGradient id="paint62_linear" x1="208.431" y1="616.928" x2="333.893" y2="1003.06" gradientUnits="userSpaceOnUse">
<stop stop-color="#9AA1B8"/>
<stop offset="1" stop-color="#F8C751"/>
</linearGradient>
<linearGradient id="paint63_linear" x1="203.221" y1="622.28" x2="306.254" y2="1006.8" gradientUnits="userSpaceOnUse">
<stop stop-color="#9AA1B8"/>
<stop offset="1" stop-color="#F8C751"/>
</linearGradient>
<linearGradient id="paint64_linear" x1="197.762" y1="628.243" x2="278.883" y2="1009.89" gradientUnits="userSpaceOnUse">
<stop stop-color="#9AA1B8"/>
<stop offset="1" stop-color="#F8C751"/>
</linearGradient>
<linearGradient id="paint65_linear" x1="192.018" y1="634.793" x2="251.817" y2="1012.35" gradientUnits="userSpaceOnUse">
<stop stop-color="#9AA1B8"/>
<stop offset="1" stop-color="#F8C751"/>
</linearGradient>
<linearGradient id="paint66_linear" x1="185.96" y1="641.904" x2="225.09" y2="1014.2" gradientUnits="userSpaceOnUse">
<stop stop-color="#9AA1B8"/>
<stop offset="1" stop-color="#F8C751"/>
</linearGradient>
<linearGradient id="paint67_linear" x1="179.556" y1="649.549" x2="198.734" y2="1015.48" gradientUnits="userSpaceOnUse">
<stop stop-color="#9AA1B8"/>
<stop offset="1" stop-color="#F8C751"/>
</linearGradient>
<linearGradient id="paint68_linear" x1="172.779" y1="657.698" x2="172.779" y2="1016.21" gradientUnits="userSpaceOnUse">
<stop stop-color="#9AA1B8"/>
<stop offset="1" stop-color="#F8C751"/>
</linearGradient>
</defs>
</svg>
